<?xml version="1.0" encoding="UTF-8"?><svg id="a" xmlns="http://www.w3.org/2000/svg" width="420" height="420" xmlns:xlink="http://www.w3.org/1999/xlink" viewBox="0 0 420 420"><defs><radialGradient id="e" cx="210" cy="210" fx="210" fy="210" r="3" gradientUnits="userSpaceOnUse"><stop offset="0" stop-color="#07090b" stop-opacity=".2"/><stop offset="1" stop-color="#f069a1"/></radialGradient><radialGradient id="f" cx="209" cy="211" fx="209" fy="211" xlink:href="#e"/><radialGradient id="g" cx="216" fx="216" xlink:href="#e"/><radialGradient id="h" cx="196" fx="196" xlink:href="#e"/><radialGradient id="i" cx="222" cy="222" fx="222" fy="222" xlink:href="#e"/><radialGradient id="j" cx="196" cy="196" fx="196" fy="196" xlink:href="#e"/><radialGradient id="k" cx="231" cy="231" fx="231" fy="231" xlink:href="#e"/><radialGradient id="l" cx="187" cy="187" fx="187" fy="187" xlink:href="#e"/><radialGradient id="m" cy="247" fy="247" xlink:href="#e"/><radialGradient id="n" cy="165" fy="165" r="2" xlink:href="#e"/><radialGradient id="o" cx="176" cy="244" fx="176" fy="244" r="2" xlink:href="#e"/><radialGradient id="p" cx="263" fx="263" r="2" xlink:href="#e"/><radialGradient id="q" cx="168" cy="252" fx="168" fy="252" r="2" xlink:href="#e"/><radialGradient id="r" cx="275" fx="275" r="2" xlink:href="#e"/><radialGradient id="s" cx="143" fx="143" r="2" xlink:href="#e"/><radialGradient id="t" cx="263" cy="263" fx="263" fy="263" r="2" xlink:href="#e"/><radialGradient id="u" cx="154" cy="154" fx="154" fy="154" r="2" xlink:href="#e"/><radialGradient id="v" cx="268" cy="268" fx="268" fy="268" r="2" xlink:href="#e"/><radialGradient id="w" cx="146" cy="146" fx="146" fy="146" r="1" xlink:href="#e"/><radialGradient id="x" cy="306" fy="306" r="1" xlink:href="#e"/><radialGradient id="y" cy="112" fy="112" r="1" xlink:href="#e"/><radialGradient id="z" cx="135" cy="285" fx="135" fy="285" r="1" xlink:href="#e"/><radialGradient id="aa" cy="208" fy="208" xlink:href="#e"/><radialGradient id="ab" cx="206" cy="214" fx="206" fy="214" xlink:href="#e"/><radialGradient id="ac" cx="219" cy="201" fx="219" fy="201" xlink:href="#e"/><radialGradient id="ad" cx="198" cy="222" fx="198" fy="222" xlink:href="#e"/><radialGradient id="ae" cx="224" cy="196" fx="224" fy="196" xlink:href="#e"/><radialGradient id="af" cx="180" fx="180" xlink:href="#e"/><radialGradient id="ag" cx="243" fx="243" xlink:href="#e"/><radialGradient id="ah" cx="185" cy="185" fx="185" fy="185" xlink:href="#e"/><radialGradient id="ai" cx="241" cy="241" fx="241" fy="241" r="2" xlink:href="#e"/><radialGradient id="aj" cx="176" cy="176" fx="176" fy="176" r="2" xlink:href="#e"/><radialGradient id="ak" cy="263" fy="263" r="2" xlink:href="#e"/><radialGradient id="al" cy="149" fy="149" r="2" xlink:href="#e"/><radialGradient id="am" cx="165" cy="255" fx="165" fy="255" r="2" xlink:href="#e"/><radialGradient id="an" cx="256" cy="164" fx="256" fy="164" r="2" xlink:href="#e"/><radialGradient id="ao" cx="157" cy="263" fx="157" fy="263" r="2" xlink:href="#e"/><radialGradient id="ap" cx="266" cy="154" fx="266" fy="154" r="2" xlink:href="#e"/><radialGradient id="aq" cx="127" fx="127" r="2" xlink:href="#e"/><radialGradient id="ar" cx="302" fx="302" r="1" xlink:href="#e"/><radialGradient id="as" cx="143" cy="143" fx="143" fy="143" r="1" xlink:href="#e"/><radialGradient id="at" cx="278" cy="278" fx="278" fy="278" r="1" xlink:href="#e"/><radialGradient id="au" cx="135" cy="135" fx="135" fy="135" r="1" xlink:href="#e"/><radialGradient id="av" cx="211" cy="211" fx="211" fy="211" xlink:href="#e"/><radialGradient id="aw" cx="206" cy="206" fx="206" fy="206" xlink:href="#e"/><radialGradient id="ax" cx="219" cy="219" fx="219" fy="219" xlink:href="#e"/><radialGradient id="ay" cy="192" fy="192" xlink:href="#e"/><radialGradient id="az" cy="231" fy="231" xlink:href="#e"/><radialGradient id="ba" cx="231" cy="189" fx="231" fy="189" xlink:href="#e"/><radialGradient id="bb" cx="187" cy="233" fx="187" fy="233" xlink:href="#e"/><radialGradient id="bc" cx="235" cy="185" fx="235" fy="185" xlink:href="#e"/><radialGradient id="bd" cx="179" cy="241" fx="179" fy="241" r="2" xlink:href="#e"/><radialGradient id="be" cx="259" fx="259" r="2" xlink:href="#e"/><radialGradient id="bf" cx="173" cy="173" fx="173" fy="173" r="2" xlink:href="#e"/><radialGradient id="bg" cx="252" cy="252" fx="252" fy="252" r="2" xlink:href="#e"/><radialGradient id="bh" cx="165" cy="165" fx="165" fy="165" r="2" xlink:href="#e"/><radialGradient id="bi" cx="256" cy="256" fx="256" fy="256" r="2" xlink:href="#e"/><radialGradient id="bj" cy="133" fy="133" r="2" xlink:href="#e"/><radialGradient id="bk" cy="290" fy="290" r="2" xlink:href="#e"/><radialGradient id="bl" cx="268" cy="152" fx="268" fy="152" r="2" xlink:href="#e"/><radialGradient id="bm" cx="146" cy="274" fx="146" fy="274" r="1" xlink:href="#e"/><radialGradient id="bn" cx="277" cy="143" fx="277" fy="143" r="1" xlink:href="#e"/><radialGradient id="bo" cx="142" cy="278" fx="142" fy="278" r="1" xlink:href="#e"/><radialGradient id="bp" cx="318" fx="318" r="1" xlink:href="#e"/><radialGradient id="bq" cx="1.5" cy="420.5" fx="1.5" fy="420.5" r=".5" gradientTransform="translate(-131 96085) scale(228 -228)" xlink:href="#e"/></defs><g id="b"><g id="c"><g id="d"><circle cx="210" cy="210" r="3" fill="url(#e)" isolation="isolate" opacity=".5"/><circle cx="209" cy="211" r="3" fill="url(#f)" isolation="isolate" opacity=".5"/><circle cx="216" cy="210" r="3" fill="url(#g)" isolation="isolate" opacity=".5"/><circle cx="196" cy="210" r="3" fill="url(#h)" isolation="isolate" opacity=".5"/><circle cx="222" cy="222" r="3" fill="url(#i)" isolation="isolate" opacity=".5"/><circle cx="196" cy="196" r="3" fill="url(#j)" isolation="isolate" opacity=".5"/><circle cx="231" cy="231" r="3" fill="url(#k)" isolation="isolate" opacity=".5"/><circle cx="187" cy="187" r="3" fill="url(#l)" isolation="isolate" opacity=".5"/><circle cx="210" cy="247" r="3" fill="url(#m)" isolation="isolate" opacity=".5"/><circle cx="210" cy="165" r="2" fill="url(#n)" isolation="isolate" opacity=".5"/><circle cx="176" cy="244" r="2" fill="url(#o)" isolation="isolate" opacity=".5"/><circle cx="263" cy="210" r="2" fill="url(#p)" isolation="isolate" opacity=".5"/><circle cx="168" cy="252" r="2" fill="url(#q)" isolation="isolate" opacity=".5"/><circle cx="275" cy="210" r="2" fill="url(#r)" isolation="isolate" opacity=".5"/><circle cx="143" cy="210" r="2" fill="url(#s)" isolation="isolate" opacity=".5"/><circle cx="263" cy="263" r="2" fill="url(#t)" isolation="isolate" opacity=".5"/><circle cx="154" cy="154" r="2" fill="url(#u)" isolation="isolate" opacity=".5"/><circle cx="268" cy="268" r="2" fill="url(#v)" isolation="isolate" opacity=".5"/><circle cx="146" cy="146" r="1" fill="url(#w)" isolation="isolate" opacity=".5"/><circle cx="210" cy="306" r="1" fill="url(#x)" isolation="isolate" opacity=".5"/><circle cx="210" cy="112" r="1" fill="url(#y)" isolation="isolate" opacity=".5"/><circle cx="135" cy="285" r="1" fill="url(#z)" isolation="isolate" opacity=".5"/><circle cx="210" cy="210" r="3" fill="url(#e)" isolation="isolate" opacity=".5"/><circle cx="210" cy="208" r="3" fill="url(#aa)" isolation="isolate" opacity=".5"/><circle cx="206" cy="214" r="3" fill="url(#ab)" isolation="isolate" opacity=".5"/><circle cx="219" cy="201" r="3" fill="url(#ac)" isolation="isolate" opacity=".5"/><circle cx="198" cy="222" r="3" fill="url(#ad)" isolation="isolate" opacity=".5"/><circle cx="224" cy="196" r="3" fill="url(#ae)" isolation="isolate" opacity=".5"/><circle cx="180" cy="210" r="3" fill="url(#af)" isolation="isolate" opacity=".5"/><circle cx="243" cy="210" r="3" fill="url(#ag)" isolation="isolate" opacity=".5"/><circle cx="185" cy="185" r="3" fill="url(#ah)" isolation="isolate" opacity=".5"/><circle cx="241" cy="241" r="2" fill="url(#ai)" isolation="isolate" opacity=".5"/><circle cx="176" cy="176" r="2" fill="url(#aj)" isolation="isolate" opacity=".5"/><circle cx="210" cy="263" r="2" fill="url(#ak)" isolation="isolate" opacity=".5"/><circle cx="210" cy="149" r="2" fill="url(#al)" isolation="isolate" opacity=".5"/><circle cx="165" cy="255" r="2" fill="url(#am)" isolation="isolate" opacity=".5"/><circle cx="256" cy="164" r="2" fill="url(#an)" isolation="isolate" opacity=".5"/><circle cx="157" cy="263" r="2" fill="url(#ao)" isolation="isolate" opacity=".5"/><circle cx="266" cy="154" r="2" fill="url(#ap)" isolation="isolate" opacity=".5"/><circle cx="127" cy="210" r="2" fill="url(#aq)" isolation="isolate" opacity=".5"/><circle cx="302" cy="210" r="1" fill="url(#ar)" isolation="isolate" opacity=".5"/><circle cx="143" cy="143" r="1" fill="url(#as)" isolation="isolate" opacity=".5"/><circle cx="278" cy="278" r="1" fill="url(#at)" isolation="isolate" opacity=".5"/><circle cx="135" cy="135" r="1" fill="url(#au)" isolation="isolate" opacity=".5"/><circle cx="210" cy="210" r="3" fill="url(#e)" isolation="isolate" opacity=".5"/><circle cx="211" cy="211" r="3" fill="url(#av)" isolation="isolate" opacity=".5"/><circle cx="206" cy="206" r="3" fill="url(#aw)" isolation="isolate" opacity=".5"/><circle cx="219" cy="219" r="3" fill="url(#ax)" isolation="isolate" opacity=".5"/><circle cx="210" cy="192" r="3" fill="url(#ay)" isolation="isolate" opacity=".5"/><circle cx="210" cy="231" r="3" fill="url(#az)" isolation="isolate" opacity=".5"/><circle cx="231" cy="189" r="3" fill="url(#ba)" isolation="isolate" opacity=".5"/><circle cx="187" cy="233" r="3" fill="url(#bb)" isolation="isolate" opacity=".5"/><circle cx="235" cy="185" r="3" fill="url(#bc)" isolation="isolate" opacity=".5"/><circle cx="179" cy="241" r="2" fill="url(#bd)" isolation="isolate" opacity=".5"/><circle cx="259" cy="210" r="2" fill="url(#be)" isolation="isolate" opacity=".5"/><circle cx="173" cy="173" r="2" fill="url(#bf)" isolation="isolate" opacity=".5"/><circle cx="252" cy="252" r="2" fill="url(#bg)" isolation="isolate" opacity=".5"/><circle cx="165" cy="165" r="2" fill="url(#bh)" isolation="isolate" opacity=".5"/><circle cx="256" cy="256" r="2" fill="url(#bi)" isolation="isolate" opacity=".5"/><circle cx="210" cy="133" r="2" fill="url(#bj)" isolation="isolate" opacity=".5"/><circle cx="210" cy="290" r="2" fill="url(#bk)" isolation="isolate" opacity=".5"/><circle cx="268" cy="152" r="2" fill="url(#bl)" isolation="isolate" opacity=".5"/><circle cx="146" cy="274" r="1" fill="url(#bm)" isolation="isolate" opacity=".5"/><circle cx="277" cy="143" r="1" fill="url(#bn)" isolation="isolate" opacity=".5"/><circle cx="142" cy="278" r="1" fill="url(#bo)" isolation="isolate" opacity=".5"/><circle cx="318" cy="210" r="1" fill="url(#bp)" isolation="isolate" opacity=".5"/><circle cx="210" cy="210" r="114" fill="url(#bq)"/></g></g></g></svg>