<?xml version="1.0" encoding="UTF-8"?><svg id="a" xmlns="http://www.w3.org/2000/svg" width="420" height="420" xmlns:xlink="http://www.w3.org/1999/xlink" viewBox="0 0 420 420"><defs><linearGradient id="e" x1="183.11" y1="135.79" x2="191.28" y2="135.79" gradientUnits="userSpaceOnUse"><stop offset="0" stop-color="#341c0e"/><stop offset=".69" stop-color="#333"/></linearGradient><linearGradient id="f" x1="184.87" y1="134.64" x2="188.5" y2="134.64" xlink:href="#e"/><linearGradient id="g" x1="186.52" y1="130.76" x2="191.3" y2="130.76" xlink:href="#e"/><linearGradient id="h" x1="194.05" y1="130.83" x2="201.64" y2="130.83" xlink:href="#e"/><linearGradient id="i" x1="189.59" y1="132.98" x2="193.84" y2="132.98" xlink:href="#e"/><linearGradient id="j" x1="191.65" y1="127.17" x2="196.38" y2="127.17" xlink:href="#e"/><linearGradient id="k" x1="203.79" y1="125.33" x2="208.85" y2="125.33" xlink:href="#e"/><linearGradient id="l" x1="195.06" y1="126.68" x2="202.29" y2="126.68" xlink:href="#e"/><linearGradient id="m" x1="198.87" y1="124.87" x2="203.93" y2="124.87" xlink:href="#e"/><linearGradient id="n" x1="206.1" y1="124.7" x2="222.38" y2="124.7" xlink:href="#e"/><linearGradient id="o" x1="215.06" y1="130.39" x2="215.82" y2="130.39" xlink:href="#e"/><linearGradient id="p" x1="223.25" y1="121.58" x2="224.75" y2="121.58" xlink:href="#e"/><linearGradient id="q" x1="221.65" y1="129.85" x2="235.37" y2="129.85" xlink:href="#e"/><linearGradient id="r" x1="230.73" y1="130.92" x2="236.09" y2="130.92" xlink:href="#e"/><linearGradient id="s" x1="234.88" y1="129.78" x2="244.84" y2="129.78" xlink:href="#e"/><linearGradient id="t" x1="241.69" y1="138.24" x2="254.97" y2="138.24" xlink:href="#e"/><linearGradient id="u" x1="254.41" y1="138.43" x2="265.96" y2="138.43" xlink:href="#e"/><linearGradient id="v" x1="255.42" y1="143.1" x2="256.99" y2="143.1" xlink:href="#e"/><linearGradient id="w" x1="262.8" y1="138.59" x2="271.73" y2="138.59" xlink:href="#e"/><linearGradient id="x" x1="264.95" y1="138.35" x2="275.2" y2="138.35" xlink:href="#e"/><linearGradient id="y" x1="261.08" y1="155.52" x2="265.73" y2="155.52" xlink:href="#e"/><linearGradient id="z" x1="266.43" y1="155.35" x2="282.12" y2="155.35" xlink:href="#e"/><linearGradient id="aa" x1="263.39" y1="158.62" x2="270.27" y2="158.62" xlink:href="#e"/><linearGradient id="ab" x1="272.24" y1="175.29" x2="281.78" y2="175.29" xlink:href="#e"/><linearGradient id="ac" x1="272.15" y1="182.03" x2="281.32" y2="182.03" xlink:href="#e"/><linearGradient id="ad" x1="278.6" y1="182.32" x2="289.79" y2="182.32" xlink:href="#e"/><linearGradient id="ae" x1="272.22" y1="190.53" x2="281.32" y2="190.53" xlink:href="#e"/><linearGradient id="af" x1="281.32" y1="185.12" x2="287.94" y2="185.12" xlink:href="#e"/><linearGradient id="ag" x1="273.38" y1="204.85" x2="284.95" y2="204.85" xlink:href="#e"/><linearGradient id="ah" x1="272.84" y1="217.61" x2="286.6" y2="217.61" xlink:href="#e"/><linearGradient id="ai" x1="274.45" y1="219.98" x2="289.95" y2="219.98" xlink:href="#e"/><linearGradient id="aj" x1="277.7" y1="221.46" x2="281.78" y2="221.46" xlink:href="#e"/><linearGradient id="ak" x1="275.25" y1="241.8" x2="281.61" y2="241.8" xlink:href="#e"/><linearGradient id="al" x1="271.64" y1="234.53" x2="278.04" y2="234.53" xlink:href="#e"/><linearGradient id="am" x1="272.71" y1="240.05" x2="278.04" y2="240.05" xlink:href="#e"/><linearGradient id="an" x1="269.37" y1="250.59" x2="273.99" y2="250.59" xlink:href="#e"/><linearGradient id="ao" x1="267.89" y1="264.39" x2="275.33" y2="264.39" xlink:href="#e"/><linearGradient id="ap" x1="265.61" y1="277.61" x2="268.85" y2="277.61" xlink:href="#e"/><linearGradient id="aq" x1="264.43" y1="289.11" x2="271.37" y2="289.11" xlink:href="#e"/><linearGradient id="ar" x1="265.74" y1="298.33" x2="267.65" y2="298.33" xlink:href="#e"/></defs><g id="b"><g id="c"><g id="d"><path d="M265.32,296.88c-.26-.27-.63-.5-.63-.5-.33-.2-.5-.31-.67-.28-.52.08-.72,1.2-.8,1.18-.05-.01.02-.3.09-.96.03-.26.02-.26.07-.75.03-.28.05-.47.07-.67.05-.48.03-.28.13-1.25.02-.15.1-.88.2-1.81.02-.14.07-.63.09-.82.02-.18.07-.61.09-.79.08-.71.06-.51.08-.69.03-.25.04-.36.06-.55,0-.06,0-.12.05-.41.04-.32.07-.56.07-.57.03-.26.08-.58.1-.79,0-.08.06-.45.08-.58.02-.12.07-.55.09-.65,0-.05.06-.45.07-.52,0-.06.07-.52.08-.58,0-.09.08-.58.09-.66.03-.2.1-.73.12-.88.04-.32.07-.65.13-.96.08-.43.12-.87.18-1.3.08-.59.16-1.18.24-1.77,0-.1.19-1.41.21-1.53.21-1.55.32-2.33.36-2.66.09-.7.19-1.38.3-2.31.07-.56.14-1.14.29-2.3.07-.52.13-1.05.19-1.57.16-1.28.2-1.6.27-2.23.04-.37.09-.72.14-1.21.07-.59.07-.64.16-1.42.04-.32.09-.79.16-1.42.03-.25.06-.47.11-.92.05-.43.09-.75.13-1.11.04-.31.08-.64.18-1.46.07-.59.12-.98.21-1.68.26-2.04.24-1.96.38-3.03.06-.48.11-.83.17-1.35.03-.24.04-.31.12-1.06,0-.12.07-.58.1-.88.06-.49.11-.94.17-1.5.05-.47.08-.71.11-.97.06-.53.1-.84.17-1.42,0-.06.07-.62.2-1.67s.25-2.03.26-2.18c.16-1.29.24-1.95.3-2.47.05-.39.06-.46.19-1.45.09-.72.17-1.28.18-1.4.13-1.01.17-1.29.24-1.86.08-.62.11-.83.14-1.06.03-.24.11-.83.21-1.62.11-.89.17-1.34.21-1.66.03-.28.06-.54.12-1.02.04-.34.08-.62.09-.75.02-.14.03-.24.09-.7.04-.28.12-.96.13-1.04.02-.13.09-.72.12-.9.04-.29.1-.77.13-1,0-.07.05-.36.06-.45.02-.18.05-.38.06-.46.03-.24.05-.35.06-.47.03-.26.04-.29.07-.5.02-.13.03-.22.05-.41,0-.07.04-.34.1-.8.02-.18.04-.33.06-.47s.04-.37.08-.63c.05-.41.07-.61.1-.82.04-.36.07-.64.08-.78.02-.21.04-.4.07-.78.03-.33.03-.36.08-.85.04-.47.05-.61.07-.83.03-.36.05-.54.07-.76,0-.15.03-.34.07-.87.06-.71.08-1.06.1-1.24.03-.49.06-.89.07-1.15,0-.23.02-.45.05-.9,0-.21.02-.43.04-.87.03-.59.04-.89.05-.99,0-.27,0-.52.02-1.02v-4.22c0-.55-.02-.94-.04-1.52,0-.33-.03-.73-.08-1.55-.04-.8-.05-.97-.07-1.12,0-.19-.05-.64-.12-1.22-.04-.33-.08-.69-.16-1.16-.1-.62-.2-1.07-.23-1.17-.11-.5-.22-.88-.29-1.11-.08-.29-.08-.24-.26-.86-.14-.48-.22-.72-.29-1-.08-.29-.15-.63-.17-.71,0-.06-.04-.18-.08-.33-.05-.21-.08-.34-.11-.52-.03-.17-.06-.28-.08-.44-.02-.13-.03-.23-.04-.35-.02-.15-.02-.27-.03-.38,0-.06-.02-.23-.03-.48,0-.1-.02-.27-.02-.48-.02-.47,0-.83,0-.93,0-.18,0-.33.02-.61,0-.08.02-.48.05-1.03,0-.24.03-.43.05-.76,0-.11.02-.25.04-.54,0-.06.03-.39.05-.76,0-.06,0-.18.02-.34,0-.19.02-.28.03-.37,0-.12.02-.28.04-.48.03-.34.06-.61.08-.8,0-.13.02-.22.05-.47.02-.23.05-.41.06-.53.02-.15.03-.35.05-.57.02-.23.04-.41.05-.54,0-.12.03-.37.05-.68q.02-.3.05-.81c.04-.53.04-.57.06-.83,0-.15,0-.24.03-.59.04-.95.04-.9.04-.98.02-.53.03-.92.03-1.47,0-.73,0-1.23,0-1.92-.02-.95-.07-1.64-.08-1.88-.03-.39-.05-.64-.08-.94-.05-.59-.09-.86-.13-1.11-.04-.27-.09-.47-.14-.67-.03-.12-.08-.28-.16-.48-.08-.21-.17-.38-.27-.55-.26-.45-.51-.82-.68-1.05-.31-.43-.46-.64-.7-.87-.25-.25-.47-.41-.72-.6-.38-.29-.72-.48-.9-.6-.25-.15-.5-.28-.5-.28q-.09-.05-.38-.2c-.07-.04-.09-.05-.37-.19,0,0-.34-.18-.37-.19-.4-.21-.42-.22-.5-.26-.26-.14-.39-.21-.54-.29q-.08-.04-.29-.16c-.2-.11-.24-.13-.31-.17,0,0-.2-.11-.34-.19-.06-.03-.23-.14-.64-.4-.32-.21-.48-.32-.59-.4-.27-.2-.44-.38-.63-.55-.16-.15-.4-.39-.67-.73-.23-.28-.38-.52-.47-.66-.16-.24-.27-.44-.39-.66-.1-.17-.18-.32-.24-.43-.05-.09-.12-.21-.19-.37-.06-.14-.09-.25-.13-.4-.05-.19-.08-.34-.11-.52-.04-.22-.07-.38-.09-.53-.03-.21-.05-.37-.07-.5-.02-.19-.04-.34-.05-.43-.02-.2-.03-.35-.04-.43,0-.04,0-.15-.02-.28,0-.04,0-.13-.02-.24,0-.06,0-.14-.02-.25,0-.15-.02-.28-.02-.34,0-.09,0-.21-.02-.37,0-.11,0-.2,0-.22,0-.09,0-.23-.02-.4,0-.12,0-.28,0-.47,0-.24.02-.44.04-.59.02-.17.06-.31.08-.42.05-.22.06-.22.11-.44.06-.27.09-.41.1-.61v-.32c0-.11,0-.2-.02-.34,0-.13-.02-.19-.03-.36,0-.1-.02-.23-.03-.4,0-.06,0-.12,0-.18v-.53c0-.1,0-.17,0-.2,0-.07.02-.16.04-.25v-.17c0-.06,0-.1-.02-.15,0-.06,0-.1-.02-.11-.02-.13-.07-.45-.1-.73,0-.06-.02-.18-.05-.42-.02-.15-.03-.24-.05-.46-.02-.17-.04-.31-.05-.4,0-.07-.02-.16-.03-.28,0-.09-.03-.21-.04-.37,0-.11-.03-.25-.05-.42-.03-.24-.06-.44-.09-.6-.03-.19-.05-.33-.08-.46-.03-.18-.05-.27-.07-.35-.05-.17-.09-.32-.21-.47-.03-.04-.09-.11-.28-.24-.11-.07-.27-.18-.6-.34-.3-.14-.55-.25-.71-.31-.12-.05-.27-.11-.27-.11-.11-.04-.2-.08-.27-.1-.12-.04-.21-.08-.29-.11-.23-.08-.21-.08-.3-.11-.12-.05-.15-.06-.39-.15-.13-.05-.23-.09-.33-.13-.07-.03-.27-.1-.47-.17-.07-.02-.27-.09-.82-.25-.23-.07-.39-.11-.52-.15-.26-.07-.65-.18-1.12-.31-.59-.07-1.08-.12-1.46-.15,0,0-1.06-.1-2.01-.12h-.65c-.14,0-.33,0-.59.04-.15.02-.36.04-.6.08-.08,0-.23.04-.4.08-.22.05-.27.07-.46.12-.02,0-.21.05-.43.08-.07,0-.39.06-.81.06-.51,0-.88-.05-.97-.06-.38-.05-.64-.13-.98-.23-.38-.11-.68-.19-1.06-.36-.44-.19-.74-.38-1.1-.62-.32-.2-.54-.36-.87-.61-.3-.22-.55-.4-.85-.65-.26-.21-.48-.42-.93-.83-.33-.3-.48-.44-.56-.51-.11-.11-.3-.29-.54-.54-.12-.13-.32-.33-.57-.61-.17-.19-.29-.34-.52-.62-.39-.48-.4-.51-.62-.76s-.39-.43-.54-.59c-.28-.3-.43-.45-.62-.6-.25-.2-.47-.34-.57-.39-.1-.06-.17-.09-.59-.29-.38-.18-.57-.27-.6-.28-.52-.22-.93-.31-1.03-.33-.25-.05-.58-.1-.97-.11-.46,0-.83.03-1.11.05-.35.02-.53.03-.74.05-.08,0-.24.02-1,.12-.39.05-.59.07-.72.09-.6.08-.66.11-1,.16-.53.07-.93.07-1.18.08-.48,0-.82-.02-1.22-.06-.6-.05-1.04-.11-1.19-.14-.34-.05-.62-.11-.81-.14-.15-.03-.35-.07-.61-.13-.05,0-.26-.06-.54-.13-.07-.02-.03,0-.46-.12-.28-.07-.3-.08-.37-.1-.05-.02-.03,0-.38-.13,0,0-.13-.04-.27-.09l-.25-.09c-.08-.03-.16-.06-.24-.08-.17-.06-.25-.09-.25-.09q-.15-.05-.17-.06c-.07-.03-.1-.04-.27-.11-.08-.03-.16-.06-.23-.1,0,0-.21-.09-.25-.1-.25-.1-.24-.1-.25-.1-.13-.05-.28-.12-.45-.19-.06-.03-.04-.02-.44-.21-.17-.08-.25-.12-.36-.17-.26-.12-.27-.13-.33-.16-.1-.05-.16-.08-.39-.21-.48-.26-.42-.23-.51-.28-.18-.1-.33-.18-.53-.3-.16-.09-.17-.1-.39-.23-.24-.14-.36-.21-.44-.25-.15-.08-.33-.17-.58-.27-.13-.05-.35-.13-.64-.19-.04,0-.26-.05-.55-.08-.21-.02-.35-.02-.62-.02-.31,0-.54,0-.73.02-.18,0-.4.02-.68.04-.05,0-.16,0-.68.07-.41.05-.61.07-.71.08-.32.05-.31.05-.88.15-.14.02-.06,0-.72.11-.33.05-.39.06-.53.08-.28.04-.53.07-.58.07-.03,0-.1,0-.25.03-.21.02-.32.04-.37.04-.09,0-.19.02-.4.03-.08,0-.06,0-.44.03-.1,0-.2,0-.3.02l-.27.02c-.34.02-.33.02-.34.02-.18,0-.31.02-.48.04-.19.02-.32.03-.5.05-.1,0-.16.02-.45.06-.56.08-.55.07-.57.08-.27.04-.45.08-.74.15-.2.04-.53.12-.94.23-.2.06-.58.16-.98.3-.54.19-.96.4-1.21.53,0,0-.1.05-.21.11-.86.48-2.83,2.53-4.25,3.54-1.38.99-2.85,1.43-3.29,1.56-.82.24-1.4.31-2.48.74-1,.4-1.25.64-1.89.91-.77.33-1.98.63-3.71.41.77-2.15,2.11-5.14,4.43-8.29.93-1.27,2.67-3.42,5.28-5.61,1.13-.95,4.11-3.31,8.59-5.19,4.51-1.89,8.22-2.31,9.04-2.39,3.83-.4,6.78.04,7.67.19,3.99.66,7.14,2.09,9.32,3.33-.91,0-4.99.16-7.79,3.1-.69.72-2.32,2.44-2.41,4.9-.02.44.02.81.06,1.07.11.17.28.4.53.61.19.16.27.17.73.44.49.29.49.32.73.44.2.09.48.21.85.26.15,0,.46-.04.83-.15,2.92-.83,4.51-4.7,6.57-5.95,1.02-.62,1.82-1.01,2.53-1.29.7-.27,3.51-1.31,7.09-.94,2,.21,3.71.79,5.86,1.53.54.18.8.27,1.15.42,2.7,1.14,4.96,3.17,4.8,3.67-.11.35-1.34-.41-3.85-.47-.98-.02-1.91-.04-3.06.35-.71.23-2.12.71-3.42,2.22-.33.39-1.8,2.18-1.45,3.23.06.2.4.46,1.05.96.61.47.72.5,1.31.96.66.5.7.59,1.11.88.21.16.6.43,1.13.63,3.5,1.27,6.4-3.26,12.29-5.52.94-.36,5.85-2.16,11.59-.76,1.79.44,5.43,1.32,8.18,4.49,2.7,3.12,3.48,7.19,2.96,7.48-.3.16-.89-1.01-3.01-2.43-1.45-.97-2.65-1.42-2.98-1.53-1.41-.5-2.56-.63-3.29-.71-.71-.08-1.42-.15-2.38-.06-1.33.12-2.24.47-3.03.77-1.22.48-1.59.83-1.82,1.17-.14.21-.37.55-.38.97-.03,1.16,1.58,1.32,2.44,2.91.84,1.54.19,2.99,1,3.36.4.18.68-.07,1.39-.25,1.3-.33,2.92.15,6.15,1.11l1.83.55c.95.33,1.88.74,2.82,1.24,2.7,1.44,4.25,2.43,5.73,3.79,1.48,1.35,3.65,4.33,4.32,5.86l.48,1.17c-2.24-1.24-5.89-2.8-9.85-2.34-1.89.22-3.54.86-4.62,2.47-.28.41-.83,1.26-.78,2.37.02.4.13,1.32,1.12,2.41,2.02,2.23,4.44,1.35,7.17,2.69,2.71,1.33,4.46,3.38,5.86,5.03,3.18,3.74,4.72,7.62,5.08,8.54,1.72,4.46,2.36,9.18,2.02,9.36-.22.11-.48-1.72-1.67-3.12-3.39-3.99-10.17-.65-12.35,1.71-.39.43-1.22,1.33-1.71,2.92-.08.26-.34,1.14-.38,2.34,0,.37-.07,3.15,1.4,5.26.19.27.32.82,1.58,1.52,1.23.69,2.29,1.87,3.5,2.65,2.48,1.61,7.04,7.38,8.97,15.5.42,1.76.92,4.55.94,8.16-1.51-3.76-3.09-4.88-3.97-5.28-.66-.29-2.08-.72-3.49-1.14-.61-.18-1.05-.32-1.65-.47-2.66-.7-4.01-1.04-5.15-.46-.36.18-1.1.58-1.64,1.62-.65,1.24-.58,2.6-.55,3.06.47.61,1.15,1.53,1.95,2.7,1.54,2.27,2.65,3.89,3.63,6.43,1.21,3.16,1.82,6.31,1.96,9.83.14,2.89-.14,5.59-.54,5.86-.34-.88-.9-2.14-1.79-3.42-1.05-1.54-2.03-2.97-3.61-3.27-.3-.06-1.66-.28-2.96.82-.16.13-.84.73-1.38,1.91-.51,1.11-.63,2.19-.67,2.8.07.5.14.99.21,1.49.38.66.75,1.33,1.14,1.99.49,1.24,1.15,3.13,1.76,5.54,1.73,6.87,1.49,12.31,1.42,13.6-.19,3.42-.78,6.49-.99,6.46-.15-.02.07-1.69-.23-4.12-.16-1.31-.69-5.71-3.1-7.58-.53-.41-1.11-.86-1.66-.58-.74.37-.77,1.73-1.4,7.02-.39,3.25-.5,3.75-.25,4.66.38,1.4.91,1.27,2.17,3.64.59,1.1,1.24,2.36,1.58,4.21.09.51.19,1.22.19,3.12,0,1.5-.05,3.57-.3,6.06.02-.59.1-4.86-2.09-6.84-.17-.15-1.89-1.68-2.98-.7-.9.82-.8,2.75-.78,3.16.08,1.52.64,2.4,1.05,3.39,1.69,4,.78,8.18.6,8.19-.23.02-1.92-6.03-2.64-6.79l.02-.04Z" fill="#333"/><path d="M183.12,139.54c-.07-.14.11-.28.37-.9.16-.38.13-.43.27-.78.18-.48.58-1.29.77-1.24.25.06-.1,1.41.36,1.65.24.13.61-.09,1.11-.49,1.36-1.07,2.34-1.83,2.78-3.21.44-1.41.07-2.66.17-2.67.15-.02-.03,2.71,1.62,4.21.38.34.74.52.7.78-.07.45-1.26.33-3.26,1.12-1.01.4-1.84.8-1.84.8-.58.28-.88.46-1.42.63-.11.03-1.46.44-1.63.1Z" fill="url(#e)"/><path d="M184.9,135.94c-.11-.18.16-.48.51-1,.61-.91.5-1.08.85-1.31.45-.3.7-.04,1.16-.32.73-.43.72-1.43.88-1.41.19.02.44,1.45-.15,2.8-.28.64-.65,1.03-1.21,1.63-.17.18-1.13,1.21-1.43,1.02-.23-.15.14-.95-.24-1.24-.15-.12-.29-.05-.36-.17Z" fill="url(#f)"/><path d="M186.54,133.08c-.14-.16.39-.75,2.05-2.84,1.11-1.39,1.49-1.9,1.96-1.82.46.08.84.7.73.88-.09.14-.41-.11-.8.02-.62.21-.49,1.05-1.26,1.56-.4.27-.47.06-.82.32-.64.48-.43,1.21-1.09,1.68-.27.19-.67.34-.77.22Z" fill="url(#g)"/><path d="M198.27,131.68c1.91-.96,3.35-.74,3.37-1.18,0-.07-.03-.2-1.7-1.06-1.31-.67-1.53-.71-1.71-.61-.44.27.06,1.12-.46,1.92-.43.67-1.36.98-2.08.91-.92-.09-1.47-.81-1.62-.66-.13.13.2.68.48,1.03.12.14.52.63,1.04.78.8.24,1.36-.48,2.67-1.14Z" fill="url(#h)"/><path d="M189.77,131.54c.1-.15.19-.19.48-.58.39-.52.36-.61.54-.71.23-.14.37-.05,1.22,0,.78.04.87-.03,1,.1.31.3-.13.82.13,1.57.21.62.63.58.69,1.03.05.38-.22.58-1.26,1.84-.71.86-.76.98-.97,1.01-.89.09-1.67-2.19-1.73-2.38-.2-.58-.45-1.34-.1-1.87Z" fill="url(#i)"/><path d="M192.85,126.68c.28-.3.87-.9,2.01-1.78.37-.29,1.43-1.11,1.52-1,.11.13-2.03,1.39-2.29,3.41-.21,1.56.62,3.06.42,3.14-.14.05-.35-.67-1.08-.93-.37-.14-.52-.03-.93-.2-.14-.06-.69-.3-.82-.71-.15-.48.32-1,1.18-1.91Z" fill="url(#j)"/><path d="M203.82,130.25c.16.31.73.31,1.84.21,1.94-.17,2.92-.26,3.11-.61.39-.71-.82-1.67-1.96-3.65-1.81-3.15-1.86-6.11-2.07-6.07-.23.04.25,3.74-.06,5.97-.14,1-.28,1.63-.28,1.63-.29,1.24-.39,1.57-.39,1.57-.19.64-.28.78-.19.94Z" fill="url(#k)"/><path d="M195.11,127.73c-.13.97.06,1.66.14,1.89.19.59.42.81.54.9.08.06.49.39.84.24.32-.14.4-.6.45-.91.1-.59-.09-.74.04-1.17,0-.03.19-.58.65-.8.47-.22,1,.02,1.69.37,1.83.92,2.77,1.53,2.83,1.45.07-.09-.85-1.09-2.15-2.12-1.3-1.03-1.85-1.19-2.01-1.89-.14-.66.15-1.42.36-1.95.29-.73.61-1.1.53-1.16-.14-.12-1.29,1.05-1.72,1.49-1.32,1.34-1.6,1.86-1.7,2.07-.34.7-.45,1.3-.49,1.59Z" fill="url(#l)"/><path d="M201.96,128.1c.63.58.7.76.87.74.53-.05.77-1.81.9-2.79.1-.72.03-.57.15-3.03.07-1.42.11-1.89-.19-2.08-.18-.11-.31-.03-1.63.45-1.17.42-1.58.54-1.91,1-.13.18-.06.17-.29.63-.56,1.16-1.03,1.37-.98,1.88.02.2.19.42.55.85.17.2.51.6,1.59,1.55.66.57.59.47.94.8Z" fill="url(#m)"/><path d="M212.62,129.65c1.3.12,1.41.48,1.88.34,1.02-.3.59-2,1.76-3.96,1.25-2.09,3.56-3.21,4.16-3.5,1.27-.61,1.95-.63,1.96-.95.03-.84-4.43-1.66-6.52-1.94-1.37-.19-2.24-.22-3.79-.27,0,0-1.78-.06-4.16.36-.58.1-1.24.24-1.59.79-.06.1-.28.46-.19,1.37.03.36.15,1.15.97,2.63.36.65.75,1.21,1.55,2.35.5.72.42.56.87,1.22.77,1.12.79,1.25,1.06,1.41.54.32.85.04,2.06.15Z" fill="url(#n)"/><path d="M215.06,130.66c.02.12.18.13.39.31.27.24.32.52.36.51.05-.02-.03-.37-.07-.75-.08-.82.11-1.41.05-1.42-.05-.01-.05.52-.44.96-.16.17-.31.27-.29.4Z" fill="url(#o)"/><path d="M223.25,121.27c.03-.07,1.54.43,1.5.56,0,.04-.14.01-.53.02-.54,0-.97.07-.97.05,0-.03.45-.05.48-.2.03-.17-.5-.38-.48-.42Z" fill="url(#p)"/><path d="M221.66,133.41c-.12-.43,1.26-.78,2.74-2.24,1.32-1.3,1.02-1.79,2.17-2.92,1.42-1.38,3.08-1.81,4.16-2.09,2.2-.57,4.57-.49,4.64-.1.11.6-5.09,1.13-5.51,3.4-.3,1.65,2.08,3.32,1.59,3.95-.25.32-.85-.12-2.32,0-1.1.09-1.15.37-2.37.51-.59.07-1.22.02-2.46-.07-1.72-.12-2.58-.19-2.64-.44Z" fill="url(#q)"/><path d="M232.42,133.41c.34.29.51.13,1.35.48.94.38,1.27.8,1.4.69.26-.21-1.34-1.67-1.26-3.41.1-2.06,2.48-3.08,2.14-3.7-.3-.54-2.31-.02-3.69.73-.63.35-1.62.89-1.64,1.65-.02.53.44.59.92,1.61.5,1.06.26,1.52.77,1.95Z" fill="url(#r)"/><path d="M235.8,133.65c.94.2,1.31-2.37,3.58-3.8,2.55-1.6,5.31-.39,5.46-1.02.17-.73-3.63-2.33-6.99-2.82-1.3-.19-1.74-.09-1.76,0-.04.21,2.02.6,2.03,1.23,0,.26-.33.32-1.06.95-.08.07-.71.62-1.26,1.36-.49.67-.81,1.1-.9,1.72-.14.95.27,2.23.9,2.36Z" fill="url(#s)"/><path d="M241.7,140.29c.09-.41,1.67.15,3.74-.71,1.43-.59,1.68-1.27,3.34-2.56,1.54-1.2,4-3.11,5.23-2.44,1.61.88,1.13,6.26-.84,7.07-1.06.44-1.88-.73-4.12-.45-1.36.17-1.45.65-2.71.79-2.42.27-4.75-1.19-4.64-1.7Z" fill="url(#t)"/><path d="M255.55,134.45c.4-.82,1.78-.91,3.61-1.03,1.75-.11,2.62-.17,3.65.25,2.2.89,3.37,3.21,3.11,3.48-.29.3-2.42-1.92-3.35-1.31-.75.49.35,2.16-.58,3.5-.95,1.37-2.87.75-3.66,2.23-.48.89-.21,1.91-.52,1.97-.34.06-.52-1.19-1.42-1.5-.87-.29-1.68.55-1.93.28-.23-.25.45-.97.97-2.4.2-.54.57-1.61.52-2.88-.06-1.56-.7-1.93-.39-2.58Z" fill="url(#u)"/><path d="M255.42,142.82c.02-.12.64-.28,1.1,0,.34.2.54.61.46.7-.03.04-.12.02-1.04-.41-.46-.21-.52-.25-.52-.29Z" fill="url(#v)"/><path d="M262.81,138.93c-.08-.24.34-.44.41-1.1.06-.59-.22-.94-.06-1.07.11-.1.36,0,1.04.38.48.27.72.4,1.22.71.91.57,1.72.29,2.74.39,2.09.22,3.7,1.94,3.57,2.19-.14.27-2.23-1.37-5.54-1.36-1.48,0-3.22.34-3.37-.13Z" fill="url(#w)"/><path d="M264.95,133.66c.14-.27,3.38.43,6.09,2.77,3.23,2.78,4.25,6.62,4.15,6.68-.04.02-.32-.63-1.1-1.18-.33-.24-.47-.25-.8-.53-.2-.17-.45-.41-.81-.94-.47-.69-.53-.96-.77-1.33-.75-1.15-2.24-1.51-2.79-1.64-1.16-.28-1.6,0-2.04-.46-.43-.44-.19-.86-.58-1.72-.52-1.14-1.43-1.49-1.35-1.64Z" fill="url(#x)"/><path d="M261.22,149.37c-.38.21.15,1.35.26,3.56.05,1-.05.98-.01,2.59.02.75.04,1.66.17,2.71.2,1.61.64,3.49.88,3.46.28-.03-.5-2.65.84-5.12.7-1.29,1.29-1.26,1.87-2.66.66-1.59.72-3.58,0-3.95-.49-.26-.91.46-1.95.36-1.18-.11-1.68-1.15-2.04-.95Z" fill="url(#y)"/><path d="M266.44,150.32c.07-.16,2.41.28,5.73,1.84,5.68,2.65,10.4,6.75,9.92,7.59-.32.57-2.58-1.17-6.44-.84-3.39.29-5.72,1.98-6.11,1.4-.47-.69,2.65-3.18,1.99-4.38-.46-.84-2.31-.24-2.88-1.3-.39-.71.3-1.27,0-2.27-.43-1.41-2.26-1.89-2.2-2.03Z" fill="url(#z)"/><path d="M264.19,163.41c.31.4.79.7,1.77,1.3,1.06.65,1.59.97,1.96.8.42-.19.3-.69.72-1.6.66-1.42,1.78-1.94,1.62-2.22-.19-.36-1.84.53-2.28,0-.32-.4.2-1.36.66-2.2.89-1.64,1.76-2.33,1.53-2.72-.22-.38-1.15.1-1.86-.52-.33-.29-.45-.66-.52-.89-.32-1.05.33-1.56.06-2.42-.25-.81-1.13-1.38-1.42-1.21-.25.14.13.76,0,1.81-.12.95-.57,1.62-1.22,2.58-.82,1.21-.98,1.01-1.35,1.75-.6,1.21-.48,2.42-.41,3.13.08.85.16,1.66.74,2.42Z" fill="url(#aa)"/><path d="M272.36,169.86c-.45.4.46,1.54.79,3.78.11.75.09,1.64.04,3.42-.07,2.56-.26,3.71-.06,3.76.47.12,1.12-6.02,4.25-6.99,2.04-.63,4.09,1.26,4.37.83.27-.42-1.47-2.53-3.85-3.5-1.28-.52-1.47-.19-3.91-1.01-.91-.31-1.37-.51-1.62-.29Z" fill="url(#ab)"/><path d="M273.14,182.9c-.4.9-.51,1.66-.59,2.19-.36,2.66-.57,4.17-.22,4.28.52.16,1-3.29,3.64-4.54,1.61-.76,2.94-.19,3.29-.93.46-1-1.93-2.13-1.87-4.39.03-1.21.75-2.47,1.75-3.05,1.08-.62,2.13-.23,2.19-.52.09-.39-1.73-1.64-3.42-1.17-1.14.32-1.77,1.3-1.93,1.56-.51.81-.21,1-.77,2.53-.44,1.2-1.06,2.27-1.36,2.79-.38.66-.5.78-.71,1.25Z" fill="url(#ac)"/><path d="M282.54,175.29c.73-.27,2.59,3.05,3.74,5.07.9,1.59,1.49,2.65,2.13,4.21,1.1,2.67,1.49,4.75,1.35,4.8-.18.06-.63-3.11-3.03-4.48-.78-.44-1.19-.37-1.87-.99-1.3-1.19-1.12-2.66-1.74-2.77-.98-.16-2.33,3.36-2.61,3.24-.19-.08.65-1.62,0-2.66-.44-.69-1.11-.47-1.57-1.17-.61-.91-.33-2.6.52-3.11.79-.48,1.61.32,2.33-.19.76-.55.33-1.8.76-1.96Z" fill="url(#ad)"/><path d="M273.14,195.72c-.1-.03-.28-.12-.58-1.36-.26-1.1-.39-1.65-.31-2.26.05-.41.29-.91.77-1.89.57-1.17.85-1.76,1.27-2.31.26-.34.82-1.08,1.69-1.64,1.84-1.18,4.34-1.1,4.54-.51.16.47-1.19,1.14-.99,1.65.2.53,1.78.3,1.81.5.02.19-1.3.27-2.72,1.02-1.11.59-1.81,1.33-2.38,1.94-.85.91-1.27,1.36-1.48,2.07-.22.73-.07,1.12-.47,1.82-.24.41-.75,1.07-1.14.97Z" fill="url(#ae)"/><path d="M281.32,186.6c-.01-.31.3-.39.46-.85.14-.4.03-.71,0-.98-.14-1.15.89-2.54,1.34-2.44.41.08-.02,1.34.8,2.26.67.75,1.36.37,2.49,1.16,1.12.78,1.66,2,1.5,2.15-.16.16-.88-.96-2.14-1-.53-.02-.56.18-2.23.5-.62.12-1,.17-1.42,0-.03-.01-.79-.32-.8-.8Z" fill="url(#af)"/><path d="M273.39,197.22c-.17.03,1.08,4.26.9,9.66-.08,2.37-.42,4.63,0,4.73.53.13.97-3.45,2.97-4.11,3-1,7.32,5.29,7.67,4.99.23-.2-1.35-3.27-4.58-5.67-2.03-1.51-2.62-1.2-3.93-2.46-2.91-2.82-2.86-7.16-3.03-7.13Z" fill="url(#ag)"/><path d="M272.88,226.68c-.2-.02.44-5.44.98-9.31.14-.96.39-2.7,1.21-4.38.28-.57.45-.78.84-1.64.49-1.09.59-1.57,1.1-2.07.12-.12.62-.6,1.22-.71,1.43-.27,2.31,1.79,5.09,3.93,1.77,1.37,3.37,2.05,3.29,2.23-.12.24-2.8-1.64-5.48-.78-.82.26-1.46.73-2.52,1.49,0,0-1.42,1.02-2.5,2.18-2.85,3.03-3.01,9.1-3.22,9.07Z" fill="url(#ah)"/><path d="M289.79,225.16c.35-.12.13-2.08-.48-3.83-.28-.81-.32-.64-.9-2.07-.86-2.11-.75-2.42-1.29-2.98-.65-.68-1.46-.89-2.49-1.17-.67-.18-1.53-.41-2.54-.26-1.2.18-1.98.79-2.93,1.56-1.71,1.38-2.6,2.87-3.58,4.54-.35.6-1.34,2.28-1.1,2.46.37.29,2.59-3.83,5.23-3.63,2,.15,2.15,2.62,4.91,3.12,1.48.27,2.37-.27,3.55.51,1.09.72,1.33,1.85,1.6,1.76Z" fill="url(#ai)"/><path d="M277.71,221.66c-.08-.17.6-.86,1.46-.97,1.46-.19,2.7,1.43,2.61,1.56-.06.09-.78-.65-2.06-.77-1.16-.11-1.94.35-2.01.19Z" fill="url(#aj)"/><path d="M281.38,248.78c.49-.1.17-4.3-.9-9-.75-3.3-1.45-5.01-1.68-4.96-.35.07,1.2,4.15-.77,6.78-1.11,1.49-2.92,1.94-2.77,2.43.14.46,1.66-.11,3.15.59,2.3,1.08,2.55,4.25,2.97,4.16Z" fill="url(#ak)"/><path d="M274.1,224.57c.09.02-.22.99,0,2.4.04.27.24,1.44,1.15,2.92,1.43,2.32,2.87,2.57,2.78,3.49-.1,1.03-1.91,1.02-3.46,2.28-3.34,2.71-2.46,8.83-2.73,8.82-.17,0-.3-2.42-.13-5.9.08-1.65.18-3.66.58-6.35.64-4.25,1.64-7.68,1.8-7.65Z" fill="url(#al)"/><path d="M272.84,244.09c-.25-.15-.11-.74.23-2.4.69-3.34.69-3.62,1.1-4.16.7-.91,2.06-1.88,2.96-1.45.8.38.88,1.7.91,2.1.09,1.5-.75,2.61-.98,2.9-.39.5-.49.41-2.22,1.71-1.4,1.06-1.76,1.43-2,1.3Z" fill="url(#am)"/><path d="M269.73,255.63c-.66-.27-.27-2.32,0-5.38.27-3,.28-5.38.83-5.45.32-.04.5.77,1.08.78.48,0,.63-.56,1.43-.78.04-.01.78-.21.9,0,.21.36-1.71,1.25-2.71,3.18-.99,1.91-.62,3.94-.52,4.43.49,2.3,2.13,3.94,1.96,4.07-.13.1-.85-1.03-1.96-1.04-.58,0-.75.3-1.02.19Z" fill="url(#an)"/><path d="M267.93,269.47c-.18-.04.22-2.23.5-4.89.41-3.9.45-4.5.45-4.51.14-2.07.11-3.16.85-3.6.63-.37,1.43-.04,1.53,0,1.08.46,1.46,1.78,1.74,2.8,1.5,5.48,1.83,7.9,1.83,7.9.6,4.35.52,5.3.42,5.32-.22.03-.22-3.81-2.7-5.51-.2-.14-1.64-1.09-2.82-.58-1.47.63-1.62,3.12-1.8,3.08Z" fill="url(#ao)"/><path d="M265.72,284.61c-.4-.08.39-4.93.39-4.93.6-3.66,1.59-9.11,1.77-9.08.13.02-.1,2.86-.39,5.18-.27,2.15-.49,2.94-.04,4.02.52,1.27,1.59,2.1,1.37,2.4-.16.21-.71-.24-1.37-.06-1.23.33-1.52,2.5-1.73,2.46Z" fill="url(#ap)"/><path d="M264.67,295.24c-.44-.2-.17-1.31,0-3.37.3-3.64-.14-4.94.89-5.91.36-.33.69-.44,1.09-1,.63-.87.45-1.5.99-1.84.53-.34,1.3-.12,1.72.13.87.5,1.1,1.54,1.25,2.21.16.76,0,.83.14,1.74.21,1.46.76,2.2.58,2.33-.32.24-1.76-2.25-3.45-2.07-1,.1-1.64,1.09-1.77,1.3-.84,1.29-.95,3.6-.51,5,.06.18.22.65,0,1.03-.19.34-.67.58-.94.45Z" fill="url(#aq)"/><path d="M265.76,295.76c-.12.12.25.57.68,1.36,1.04,1.96,1.2,3.83,1.21,3.83.01,0-.45-1.02-.42-2.39.02-.9.24-1.23,0-1.76-.35-.78-1.31-1.2-1.47-1.04Z" fill="url(#ar)"/></g></g></g></svg>