<?xml version="1.0" encoding="UTF-8"?><svg id="a" xmlns="http://www.w3.org/2000/svg" width="420" height="420" viewBox="0 0 420 420"><g id="b"><g id="c"><g id="d"><circle cx="210" cy="210" r="3.5" fill="#36936a"/><circle cx="212.9" cy="210.8" r="3.5" fill="#36936a"/><circle cx="215.2" cy="213.1" r="3.4" fill="#36936a"/><circle cx="216.2" cy="216.6" r="3.4" fill="#36936a"/><circle cx="215.6" cy="220.7" r="3.3" fill="#36936a"/><circle cx="213.1" cy="224.8" r="3.3" fill="#36936a"/><circle cx="208.8" cy="228.1" r="3.2" fill="#36936a"/><circle cx="202.9" cy="229.9" r="3.2" fill="#36936a"/><circle cx="196.1" cy="229.7" r="3.2" fill="#36936a"/><circle cx="188.9" cy="227.2" r="3.1" fill="#36936a"/><circle cx="182.3" cy="222" r="3.1" fill="#36936a"/><circle cx="177.1" cy="214.5" r="3" fill="#36936a"/><circle cx="174.1" cy="205.1" r="3" fill="#36936a"/><circle cx="174" cy="194.4" r="2.9" fill="#36936a"/><circle cx="177.2" cy="183.3" r="2.9" fill="#36936a"/><circle cx="183.9" cy="173" r="2.8" fill="#36936a"/><circle cx="193.8" cy="164.5" r="2.8" fill="#36936a"/><circle cx="206.5" cy="158.8" r="2.8" fill="#36936a"/><circle cx="221.1" cy="156.8" r="2.7" fill="#36936a"/><circle cx="236.4" cy="159" r="2.7" fill="#36936a"/><circle cx="251.2" cy="165.8" r="2.6" fill="#36936a"/><circle cx="264.2" cy="177" r="2.6" fill="#36936a"/><circle cx="274" cy="192.1" r="2.5" fill="#36936a"/><circle cx="279.5" cy="210" r="2.5" fill="#36936a"/><circle cx="279.8" cy="229.6" r="2.5" fill="#36936a"/><circle cx="274.5" cy="249.2" r="2.4" fill="#36936a"/><circle cx="263.6" cy="267.4" r="2.4" fill="#36936a"/><circle cx="247.5" cy="282.4" r="2.3" fill="#36936a"/><circle cx="227.2" cy="292.8" r="2.3" fill="#36936a"/><circle cx="204" cy="297.4" r="2.2" fill="#36936a"/><circle cx="179.7" cy="295.4" r="2.2" fill="#36936a"/><circle cx="156" cy="286.5" r="2.2" fill="#36936a"/><circle cx="135" cy="271" r="2.1" fill="#36936a"/><circle cx="118.6" cy="249.7" r="2.1" fill="#36936a"/><circle cx="108.2" cy="224" r="2" fill="#36936a"/><circle cx="105.3" cy="195.6" r="2" fill="#36936a"/><circle cx="110.2" cy="166.7" r="1.9" fill="#36936a"/><circle cx="123.3" cy="139.5" r="1.9" fill="#36936a"/><circle cx="143.8" cy="116.2" r="1.8" fill="#36936a"/><circle cx="170.5" cy="99" r="1.8" fill="#36936a"/><circle cx="201.8" cy="89.4" r="1.8" fill="#36936a"/><circle cx="235.2" cy="88.7" r="1.7" fill="#36936a"/><circle cx="268.4" cy="97.3" r="1.7" fill="#36936a"/><circle cx="298.7" cy="115.1" r="1.6" fill="#36936a"/><circle cx="323.6" cy="140.9" r="1.6" fill="#36936a"/><circle cx="340.9" cy="173.3" r="1.5" fill="#36936a"/><circle cx="349" cy="210" r="1.5" fill="#36936a"/><circle cx="346.7" cy="248.3" r="1.5" fill="#36936a"/><circle cx="333.9" cy="285.3" r="1.4" fill="#36936a"/><circle cx="311" cy="318.2" r="1.4" fill="#36936a"/><circle cx="279.5" cy="344.1" r="1.3" fill="#36936a"/><circle cx="241.3" cy="360.8" r="1.3" fill="#36936a"/><circle cx="199.3" cy="366.7" r="1.2" fill="#36936a"/><circle cx="156.4" cy="360.9" r="1.2" fill="#36936a"/><circle cx="115.9" cy="343.3" r="1.2" fill="#36936a"/><circle cx="81.1" cy="314.9" r="1.1" fill="#36936a"/><circle cx="54.8" cy="277.4" r="1.1" fill="#36936a"/><circle cx="39.4" cy="233.4" r="1" fill="#36936a"/><circle cx="36.4" cy="186.1" r="1" fill="#36936a"/><circle cx="46.5" cy="139" r=".9" fill="#36936a"/><circle cx="69.4" cy="95.6" r=".9" fill="#36936a"/><circle cx="147.3" cy="33.5" r=".8" fill="#36936a"/><circle cx="197" cy="20.1" r=".8" fill="#36936a"/><circle cx="249.3" cy="20.7" r=".7" fill="#36936a"/><circle cx="300.3" cy="35.7" r=".7" fill="#36936a"/><circle cx="346.1" cy="64.3" r=".6" fill="#36936a"/><circle cx="382.9" cy="104.8" r=".6" fill="#36936a"/><circle cx="407.8" cy="154.6" r=".5" fill="#36936a"/><circle cx="210" cy="210" r="3.5" fill="#36936a"/><circle cx="211.7" cy="212.5" r="3.5" fill="#36936a"/><circle cx="211.9" cy="215.7" r="3.4" fill="#36936a"/><circle cx="210.5" cy="219.1" r="3.4" fill="#36936a"/><circle cx="207.4" cy="221.8" r="3.3" fill="#36936a"/><circle cx="202.8" cy="223.3" r="3.3" fill="#36936a"/><circle cx="197.4" cy="223.1" r="3.2" fill="#36936a"/><circle cx="191.8" cy="220.7" r="3.2" fill="#36936a"/><circle cx="186.6" cy="216.2" r="3.2" fill="#36936a"/><circle cx="182.8" cy="209.6" r="3.1" fill="#36936a"/><circle cx="181" cy="201.4" r="3.1" fill="#36936a"/><circle cx="181.9" cy="192.3" r="3" fill="#36936a"/><circle cx="185.7" cy="183.1" r="3" fill="#36936a"/><circle cx="192.5" cy="174.9" r="2.9" fill="#36936a"/><circle cx="202" cy="168.5" r="2.9" fill="#36936a"/><circle cx="213.8" cy="164.8" r="2.8" fill="#36936a"/><circle cx="226.9" cy="164.7" r="2.8" fill="#36936a"/><circle cx="240.2" cy="168.5" r="2.8" fill="#36936a"/><circle cx="252.7" cy="176.3" r="2.7" fill="#36936a"/><circle cx="263" cy="187.9" r="2.7" fill="#36936a"/><circle cx="270" cy="202.7" r="2.6" fill="#36936a"/><circle cx="272.7" cy="219.6" r="2.6" fill="#36936a"/><circle cx="270.5" cy="237.4" r="2.5" fill="#36936a"/><circle cx="263.2" cy="254.7" r="2.5" fill="#36936a"/><circle cx="250.9" cy="269.9" r="2.5" fill="#36936a"/><circle cx="234.2" cy="281.5" r="2.4" fill="#36936a"/><circle cx="214.2" cy="288.4" r="2.4" fill="#36936a"/><circle cx="192.2" cy="289.6" r="2.3" fill="#36936a"/><circle cx="169.9" cy="284.5" r="2.3" fill="#36936a"/><circle cx="149.2" cy="273.1" r="2.2" fill="#36936a"/><circle cx="131.9" cy="255.9" r="2.2" fill="#36936a"/><circle cx="119.5" cy="233.9" r="2.2" fill="#36936a"/><circle cx="113.3" cy="208.5" r="2.1" fill="#36936a"/><circle cx="114.4" cy="181.6" r="2.1" fill="#36936a"/><circle cx="123.1" cy="155.3" r="2" fill="#36936a"/><circle cx="139" cy="131.6" r="2" fill="#36936a"/><circle cx="161.4" cy="112.7" r="1.9" fill="#36936a"/><circle cx="188.9" cy="100.2" r="1.9" fill="#36936a"/><circle cx="219.6" cy="95.6" r="1.8" fill="#36936a"/><circle cx="251.1" cy="99.6" r="1.8" fill="#36936a"/><circle cx="281.2" cy="112.3" r="1.8" fill="#36936a"/><circle cx="307.3" cy="133.3" r="1.7" fill="#36936a"/><circle cx="327.1" cy="161.2" r="1.7" fill="#36936a"/><circle cx="338.9" cy="194.3" r="1.6" fill="#36936a"/><circle cx="341.4" cy="230.1" r="1.6" fill="#36936a"/><circle cx="333.9" cy="266" r="1.5" fill="#36936a"/><circle cx="316.5" cy="299.3" r="1.5" fill="#36936a"/><circle cx="290.1" cy="327.2" r="1.5" fill="#36936a"/><circle cx="256.5" cy="347.4" r="1.4" fill="#36936a"/><circle cx="217.9" cy="357.8" r="1.4" fill="#36936a"/><circle cx="177" cy="357.4" r="1.3" fill="#36936a"/><circle cx="137.1" cy="345.7" r="1.3" fill="#36936a"/><circle cx="101" cy="323.2" r="1.2" fill="#36936a"/><circle cx="72" cy="291.1" r="1.2" fill="#36936a"/><circle cx="52.3" cy="251.6" r="1.2" fill="#36936a"/><circle cx="43.9" cy="207.5" r="1.1" fill="#36936a"/><circle cx="47.8" cy="161.9" r="1.1" fill="#36936a"/><circle cx="64.2" cy="118.3" r="1" fill="#36936a"/><circle cx="92.4" cy="80.1" r="1" fill="#36936a"/><circle cx="130.4" cy="50.5" r=".9" fill="#36936a"/><circle cx="175.8" cy="32" r=".9" fill="#36936a"/><circle cx="225.4" cy="26.4" r=".8" fill="#36936a"/><circle cx="275.4" cy="34.5" r=".8" fill="#36936a"/><circle cx="322.1" cy="56.2" r=".8" fill="#36936a"/><circle cx="361.8" cy="90.3" r=".7" fill="#36936a"/><circle cx="391.3" cy="134.5" r=".7" fill="#36936a"/><circle cx="407.9" cy="185.9" r=".6" fill="#36936a"/><circle cx="410.1" cy="240.6" r=".6" fill="#36936a"/><circle cx="397.2" cy="294.7" r=".5" fill="#36936a"/><circle cx="210" cy="210" r="3.5" fill="#36936a"/><circle cx="209.7" cy="213" r="3.5" fill="#36936a"/><circle cx="207.8" cy="215.6" r="3.4" fill="#36936a"/><circle cx="204.6" cy="217.2" r="3.4" fill="#36936a"/><circle cx="200.4" cy="217.3" r="3.3" fill="#36936a"/><circle cx="196" cy="215.6" r="3.3" fill="#36936a"/><circle cx="192" cy="211.9" r="3.2" fill="#36936a"/><circle cx="189.1" cy="206.5" r="3.2" fill="#36936a"/><circle cx="188.1" cy="199.7" r="3.2" fill="#36936a"/><circle cx="189.4" cy="192.2" r="3.1" fill="#36936a"/><circle cx="193.3" cy="184.8" r="3.1" fill="#36936a"/><circle cx="199.8" cy="178.4" r="3" fill="#36936a"/><circle cx="208.6" cy="173.8" r="3" fill="#36936a"/><circle cx="219.2" cy="171.8" r="2.9" fill="#36936a"/><circle cx="230.6" cy="173.1" r="2.9" fill="#36936a"/><circle cx="241.9" cy="177.8" r="2.8" fill="#36936a"/><circle cx="252" cy="186.2" r="2.8" fill="#36936a"/><circle cx="259.8" cy="197.7" r="2.8" fill="#36936a"/><circle cx="264.4" cy="211.7" r="2.7" fill="#36936a"/><circle cx="264.8" cy="227.2" r="2.7" fill="#36936a"/><circle cx="260.6" cy="242.9" r="2.6" fill="#36936a"/><circle cx="251.9" cy="257.7" r="2.6" fill="#36936a"/><circle cx="238.8" cy="269.9" r="2.5" fill="#36936a"/><circle cx="222.1" cy="278.4" r="2.5" fill="#36936a"/><circle cx="202.9" cy="282.2" r="2.5" fill="#36936a"/><circle cx="182.6" cy="280.4" r="2.4" fill="#36936a"/><circle cx="162.8" cy="272.8" r="2.4" fill="#36936a"/><circle cx="145.2" cy="259.5" r="2.3" fill="#36936a"/><circle cx="131.4" cy="241.3" r="2.3" fill="#36936a"/><circle cx="122.9" cy="219.3" r="2.2" fill="#36936a"/><circle cx="120.6" cy="194.9" r="2.2" fill="#36936a"/><circle cx="125.3" cy="170.1" r="2.2" fill="#36936a"/><circle cx="136.9" cy="146.7" r="2.1" fill="#36936a"/><circle cx="155" cy="126.8" r="2.1" fill="#36936a"/><circle cx="178.6" cy="112.2" r="2" fill="#36936a"/><circle cx="206" cy="104.3" r="2" fill="#36936a"/><circle cx="235.3" cy="104.2" r="1.9" fill="#36936a"/><circle cx="264.4" cy="112.4" r="1.9" fill="#36936a"/><circle cx="290.9" cy="128.5" r="1.8" fill="#36936a"/><circle cx="312.5" cy="151.9" r="1.8" fill="#36936a"/><circle cx="327.3" cy="180.9" r="1.8" fill="#36936a"/><circle cx="333.8" cy="213.8" r="1.7" fill="#36936a"/><circle cx="331.1" cy="247.9" r="1.7" fill="#36936a"/><circle cx="318.9" cy="280.8" r="1.6" fill="#36936a"/><circle cx="297.7" cy="309.9" r="1.6" fill="#36936a"/><circle cx="268.9" cy="332.5" r="1.5" fill="#36936a"/><circle cx="234.1" cy="346.9" r="1.5" fill="#36936a"/><circle cx="196" cy="351.3" r="1.5" fill="#36936a"/><circle cx="157.3" cy="345.1" r="1.4" fill="#36936a"/><circle cx="121" cy="328.3" r="1.4" fill="#36936a"/><circle cx="90" cy="301.7" r="1.3" fill="#36936a"/><circle cx="66.9" cy="267.1" r="1.3" fill="#36936a"/><circle cx="53.8" cy="226.7" r="1.2" fill="#36936a"/><circle cx="52.1" cy="183.4" r="1.2" fill="#36936a"/><circle cx="62.4" cy="140.5" r="1.2" fill="#36936a"/><circle cx="84.4" cy="101.3" r="1.1" fill="#36936a"/><circle cx="116.7" cy="68.9" r="1.1" fill="#36936a"/><circle cx="157.3" cy="46.1" r="1" fill="#36936a"/><circle cx="203.4" cy="34.9" r="1" fill="#36936a"/><circle cx="251.5" cy="36.7" r=".9" fill="#36936a"/><circle cx="298.2" cy="51.7" r=".9" fill="#36936a"/><circle cx="339.8" cy="79.2" r=".8" fill="#36936a"/><circle cx="372.9" cy="117.6" r=".8" fill="#36936a"/><circle cx="394.7" cy="164.2" r=".8" fill="#36936a"/><circle cx="403.3" cy="215.9" r=".7" fill="#36936a"/><circle cx="397.4" cy="268.7" r=".7" fill="#36936a"/><circle cx="377.1" cy="318.7" r=".6" fill="#36936a"/><circle cx="343.6" cy="362" r=".6" fill="#36936a"/><circle cx="298.9" cy="395.2" r=".5" fill="#36936a"/><circle cx="210" cy="210" r="3.5" fill="#36936a"/><circle cx="207.8" cy="212.1" r="3.5" fill="#36936a"/><circle cx="204.7" cy="212.9" r="3.4" fill="#36936a"/><circle cx="201.2" cy="212" r="3.4" fill="#36936a"/><circle cx="197.9" cy="209.5" r="3.3" fill="#36936a"/><circle cx="195.7" cy="205.3" r="3.3" fill="#36936a"/><circle cx="195" cy="199.9" r="3.2" fill="#36936a"/><circle cx="196.3" cy="193.9" r="3.2" fill="#36936a"/><circle cx="199.9" cy="188.1" r="3.2" fill="#36936a"/><circle cx="205.7" cy="183.2" r="3.1" fill="#36936a"/><circle cx="213.4" cy="180" r="3.1" fill="#36936a"/><circle cx="222.5" cy="179.2" r="3" fill="#36936a"/><circle cx="232.2" cy="181.4" r="3" fill="#36936a"/><circle cx="241.6" cy="186.6" r="2.9" fill="#36936a"/><circle cx="249.5" cy="194.9" r="2.9" fill="#36936a"/><circle cx="255.1" cy="205.9" r="2.8" transform="translate(11 424.72) rotate(-80.78)" fill="#36936a"/><circle cx="257.5" cy="218.8" r="2.8" transform="translate(.28 437.93) rotate(-80.78)" fill="#36936a"/><circle cx="256.1" cy="232.6" r="2.8" transform="translate(-14.52 448.13) rotate(-80.78)" fill="#36936a"/><circle cx="250.6" cy="246.2" r="2.7" fill="#36936a"/><circle cx="240.9" cy="258.4" r="2.7" fill="#36936a"/><circle cx="227.6" cy="267.8" r="2.6" fill="#36936a"/><circle cx="211.4" cy="273.4" r="2.6" fill="#36936a"/><circle cx="193.5" cy="274.4" r="2.5" fill="#36936a"/><circle cx="175.3" cy="270.2" r="2.5" fill="#36936a"/><circle cx="158.2" cy="260.7" r="2.5" fill="#36936a"/><circle cx="143.8" cy="246.3" r="2.4" fill="#36936a"/><circle cx="133.5" cy="227.7" r="2.4" fill="#36936a"/><circle cx="128.5" cy="206.3" r="2.3" fill="#36936a"/><circle cx="129.7" cy="183.5" r="2.3" fill="#36936a"/><circle cx="137.3" cy="161.1" r="2.2" fill="#36936a"/><circle cx="151.2" cy="141" r="2.2" fill="#36936a"/><circle cx="170.7" cy="125" r="2.2" fill="#36936a"/><circle cx="194.7" cy="114.6" r="2.1" fill="#36936a"/><circle cx="221.3" cy="111" r="2.1" fill="#36936a"/><circle cx="248.8" cy="114.9" r="2" fill="#36936a"/><circle cx="274.8" cy="126.5" r="2" fill="#36936a"/><circle cx="297.4" cy="145.3" r="1.9" fill="#36936a"/><circle cx="314.4" cy="170.2" r="1.9" fill="#36936a"/><circle cx="324.3" cy="199.6" r="1.8" fill="#36936a"/><circle cx="325.9" cy="231.3" r="1.8" fill="#36936a"/><circle cx="318.5" cy="263.1" r="1.8" fill="#36936a"/><circle cx="302.4" cy="292.5" r="1.7" fill="#36936a"/><circle cx="278.4" cy="316.9" r="1.7" fill="#36936a"/><circle cx="247.9" cy="334.3" r="1.6" fill="#36936a"/><circle cx="213" cy="342.9" r="1.6" fill="#36936a"/><circle cx="176.3" cy="341.7" r="1.5" fill="#36936a"/><circle cx="140.5" cy="330.3" r="1.5" fill="#36936a"/><circle cx="108.5" cy="309.2" r="1.5" fill="#36936a"/><circle cx="82.8" cy="279.6" r="1.4" fill="#36936a"/><circle cx="65.8" cy="243.4" r="1.4" fill="#36936a"/><circle cx="59.1" cy="203.1" r="1.3" fill="#36936a"/><circle cx="63.7" cy="161.7" r="1.3" fill="#36936a"/><circle cx="79.6" cy="122.4" r="1.2" fill="#36936a"/><circle cx="106.2" cy="88.1" r="1.2" fill="#36936a"/><circle cx="141.6" cy="61.9" r="1.2" fill="#36936a"/><circle cx="183.6" cy="46" r="1.1" fill="#36936a"/><circle cx="229.2" cy="41.9" r="1.1" fill="#36936a"/><circle cx="275" cy="50.5" r="1" fill="#36936a"/><circle cx="317.5" cy="71.6" r="1" fill="#36936a"/><circle cx="353.2" cy="103.9" r=".9" fill="#36936a"/><circle cx="379.4" cy="145.4" r=".9" fill="#36936a"/><circle cx="393.5" cy="193.2" r=".8" fill="#36936a"/><circle cx="394.2" cy="243.9" r=".8" fill="#36936a"/><circle cx="380.9" cy="293.7" r=".8" fill="#36936a"/><circle cx="354.3" cy="338.7" r=".7" fill="#36936a"/><circle cx="315.8" cy="375.4" r=".7" fill="#36936a"/><circle cx="268.1" cy="400.7" r=".6" fill="#36936a"/><circle cx="214.6" cy="412.4" r=".6" fill="#36936a"/><circle cx="159.1" cy="409" r=".5" fill="#36936a"/><circle cx="210" cy="210" r="3.5" fill="#36936a"/><circle cx="207" cy="210.2" r="3.5" fill="#36936a"/><circle cx="204.1" cy="208.8" r="3.4" fill="#36936a"/><circle cx="201.9" cy="205.9" r="3.4" fill="#36936a"/><circle cx="201.1" cy="201.8" r="3.3" fill="#36936a"/><circle cx="202.1" cy="197.2" r="3.3" fill="#36936a"/><circle cx="205" cy="192.6" r="3.2" fill="#36936a"/><circle cx="209.8" cy="188.9" r="3.2" fill="#36936a"/><circle cx="216.3" cy="186.7" r="3.2" fill="#36936a"/><circle cx="224" cy="186.7" r="3.1" fill="#36936a"/><circle cx="231.9" cy="189.2" r="3.1" fill="#36936a"/><circle cx="239.4" cy="194.5" r="3" fill="#36936a"/><circle cx="245.4" cy="202.4" r="3" fill="#36936a"/><circle cx="249.2" cy="212.4" r="2.9" fill="#36936a"/><circle cx="250" cy="223.9" r="2.9" fill="#36936a"/><circle cx="247.2" cy="235.9" r="2.8" fill="#36936a"/><circle cx="240.8" cy="247.3" r="2.8" fill="#36936a"/><circle cx="230.8" cy="256.9" r="2.8" fill="#36936a"/><circle cx="217.8" cy="263.8" r="2.7" fill="#36936a"/><circle cx="202.6" cy="266.9" r="2.7" fill="#36936a"/><circle cx="186.4" cy="265.6" r="2.6" fill="#36936a"/><circle cx="170.3" cy="259.5" r="2.6" fill="#36936a"/><circle cx="156" cy="248.7" r="2.5" fill="#36936a"/><circle cx="144.7" cy="233.8" r="2.5" fill="#36936a"/><circle cx="137.7" cy="215.5" r="2.5" fill="#36936a"/><circle cx="135.9" cy="195.2" r="2.4" fill="#36936a"/><circle cx="140" cy="174.4" r="2.4" fill="#36936a"/><circle cx="150" cy="154.8" r="2.3" fill="#36936a"/><circle cx="165.5" cy="138.1" r="2.3" fill="#36936a"/><circle cx="185.7" cy="125.8" r="2.2" fill="#36936a"/><circle cx="209.3" cy="119.4" r="2.2" fill="#36936a"/><circle cx="234.6" cy="119.6" r="2.2" fill="#36936a"/><circle cx="259.6" cy="127" r="2.1" fill="#36936a"/><circle cx="282.3" cy="141.4" r="2.1" fill="#36936a"/><circle cx="300.8" cy="162.1" r="2" fill="#36936a"/><circle cx="313.4" cy="187.7" r="2" fill="#36936a"/><circle cx="318.6" cy="216.6" r="1.9" fill="#36936a"/><circle cx="315.6" cy="246.6" r="1.9" fill="#36936a"/><circle cx="304.3" cy="275.5" r="1.8" fill="#36936a"/><circle cx="285" cy="300.8" r="1.8" fill="#36936a"/><circle cx="259" cy="320.5" r="1.8" fill="#36936a"/><circle cx="227.8" cy="332.6" r="1.7" fill="#36936a"/><circle cx="193.7" cy="335.8" r="1.7" fill="#36936a"/><circle cx="159.2" cy="329.5" r="1.6" fill="#36936a"/><circle cx="126.9" cy="313.7" r="1.6" fill="#36936a"/><circle cx="99.5" cy="289.2" r="1.5" fill="#36936a"/><circle cx="79.4" cy="257.5" r="1.5" fill="#36936a"/><circle cx="68.4" cy="220.8" r="1.5" fill="#36936a"/><circle cx="67.8" cy="181.6" r="1.4" fill="#36936a"/><circle cx="78.1" cy="142.9" r="1.4" fill="#36936a"/><circle cx="98.8" cy="107.7" r="1.3" fill="#36936a"/><circle cx="129" cy="79" r="1.3" fill="#36936a"/><circle cx="166.5" cy="59.1" r="1.2" fill="#36936a"/><circle cx="208.8" cy="49.9" r="1.2" fill="#36936a"/><circle cx="252.8" cy="52.6" r="1.2" fill="#36936a"/><circle cx="295.3" cy="67.4" r="1.1" fill="#36936a"/><circle cx="332.8" cy="93.6" r="1.1" fill="#36936a"/><circle cx="362.3" cy="129.6" r="1" fill="#36936a"/><circle cx="381.3" cy="173.1" r="1" fill="#36936a"/><circle cx="387.9" cy="220.8" r=".9" fill="#36936a"/><circle cx="381.2" cy="269.4" r=".9" fill="#36936a"/><circle cx="361.4" cy="315.1" r=".8" fill="#36936a"/><circle cx="329.3" cy="354.4" r=".8" fill="#36936a"/><circle cx="287.1" cy="384" r=".8" fill="#36936a"/><circle cx="237.8" cy="401.3" r=".7" fill="#36936a"/><circle cx="184.7" cy="404.7" r=".7" fill="#36936a"/><circle cx="132" cy="393.5" r=".6" fill="#36936a"/><circle cx="83.5" cy="368" r=".6" fill="#36936a"/><circle cx="43.1" cy="329.7" r=".5" fill="#36936a"/><circle cx="210" cy="210" r="3.5" fill="#36936a"/><circle cx="207.5" cy="208.2" r="3.5" fill="#36936a"/><circle cx="206.2" cy="205.3" r="3.4" fill="#36936a"/><circle cx="206.5" cy="201.7" r="3.4" fill="#36936a"/><circle cx="208.4" cy="198" r="3.3" fill="#36936a"/><circle cx="212.2" cy="195.1" r="3.3" fill="#36936a"/><circle cx="217.3" cy="193.4" r="3.2" fill="#36936a"/><circle cx="223.5" cy="193.7" r="3.2" fill="#36936a"/><circle cx="229.8" cy="196.2" r="3.2" fill="#36936a"/><circle cx="235.7" cy="201.1" r="3.1" fill="#36936a"/><circle cx="240.2" cy="208.2" r="3.1" fill="#36936a"/><circle cx="242.5" cy="217" r="3" fill="#36936a"/><circle cx="242.1" cy="226.9" r="3" fill="#36936a"/><circle cx="238.5" cy="237" r="2.9" fill="#36936a"/><circle cx="231.7" cy="246.3" r="2.9" fill="#36936a"/><circle cx="221.9" cy="253.7" r="2.8" fill="#36936a"/><circle cx="209.6" cy="258.3" r="2.8" fill="#36936a"/><circle cx="195.8" cy="259.3" r="2.8" fill="#36936a"/><circle cx="181.4" cy="256.2" r="2.7" fill="#36936a"/><circle cx="167.8" cy="248.9" r="2.7" fill="#36936a"/><circle cx="156.1" cy="237.4" r="2.6" fill="#36936a"/><circle cx="147.8" cy="222.4" r="2.6" fill="#36936a"/><circle cx="143.7" cy="205" r="2.5" fill="#36936a"/><circle cx="144.7" cy="186.2" r="2.5" fill="#36936a"/><circle cx="151.1" cy="167.7" r="2.5" fill="#36936a"/><circle cx="162.8" cy="151.1" r="2.4" fill="#36936a"/><circle cx="179.3" cy="137.7" r="2.4" fill="#36936a"/><circle cx="199.5" cy="129.1" r="2.3" fill="#36936a"/><circle cx="222.2" cy="126.3" r="2.3" fill="#36936a"/><circle cx="245.5" cy="129.9" r="2.2" fill="#36936a"/><circle cx="267.7" cy="140.1" r="2.2" fill="#36936a"/><circle cx="286.9" cy="156.6" r="2.2" fill="#36936a"/><circle cx="301.3" cy="178.3" r="2.1" fill="#36936a"/><circle cx="309.5" cy="204" r="2.1" fill="#36936a"/><circle cx="310.4" cy="231.7" r="2" fill="#36936a"/><circle cx="303.5" cy="259.4" r="2" fill="#36936a"/><circle cx="288.9" cy="284.8" r="1.9" fill="#36936a"/><circle cx="267.4" cy="305.9" r="1.9" fill="#36936a"/><circle cx="240.1" cy="320.8" r="1.8" fill="#36936a"/><circle cx="209.1" cy="327.8" r="1.8" fill="#36936a"/><circle cx="176.5" cy="326.1" r="1.8" fill="#36936a"/><circle cx="144.8" cy="315.3" r="1.7" fill="#36936a"/><circle cx="116.6" cy="295.9" r="1.7" fill="#36936a"/><circle cx="94.2" cy="268.9" r="1.6" fill="#36936a"/><circle cx="79.7" cy="236.1" r="1.6" fill="#36936a"/><circle cx="74.4" cy="199.7" r="1.5" fill="#36936a"/><circle cx="79.4" cy="162.5" r="1.5" fill="#36936a"/><circle cx="94.6" cy="127.2" r="1.5" fill="#36936a"/><circle cx="119.3" cy="96.8" r="1.4" fill="#36936a"/><circle cx="152.1" cy="73.8" r="1.4" fill="#36936a"/><circle cx="190.6" cy="60.2" r="1.3" fill="#36936a"/><circle cx="232.1" cy="57.5" r="1.3" fill="#36936a"/><circle cx="273.7" cy="66.4" r="1.2" fill="#36936a"/><circle cx="312" cy="86.6" r="1.2" fill="#36936a"/><circle cx="344" cy="116.9" r="1.2" fill="#36936a"/><circle cx="367" cy="155.5" r="1.1" fill="#36936a"/><circle cx="378.9" cy="199.7" r="1.1" fill="#36936a"/><circle cx="378.3" cy="246.3" r="1" fill="#36936a"/><circle cx="365" cy="291.8" r="1" fill="#36936a"/><circle cx="339.3" cy="332.6" r=".9" fill="#36936a"/><circle cx="303" cy="365.6" r=".9" fill="#36936a"/><circle cx="258.4" cy="387.8" r=".8" fill="#36936a"/><circle cx="208.6" cy="397.3" r=".8" fill="#36936a"/><circle cx="157.3" cy="392.9" r=".8" fill="#36936a"/><circle cx="108.3" cy="374.4" r=".7" fill="#36936a"/><circle cx="65.5" cy="342.9" r=".7" fill="#36936a"/><circle cx="32.3" cy="300.4" r=".6" fill="#36936a"/><circle cx="11.5" cy="249.7" r=".6" fill="#36936a"/><circle cx="5.2" cy="194.4" r=".5" fill="#36936a"/><circle cx="210" cy="210" r="3.5" fill="#36936a"/><circle cx="209.3" cy="207.1" r="3.5" fill="#36936a"/><circle cx="210.1" cy="204" r="3.4" fill="#36936a"/><circle cx="212.6" cy="201.3" r="3.4" fill="#36936a"/><circle cx="216.5" cy="199.8" r="3.3" fill="#36936a"/><circle cx="221.3" cy="199.9" r="3.3" fill="#36936a"/><circle cx="226.3" cy="202" r="3.2" fill="#36936a"/><circle cx="230.8" cy="206.2" r="3.2" fill="#36936a"/><circle cx="234.1" cy="212.2" r="3.2" fill="#36936a"/><circle cx="235.4" cy="219.7" r="3.1" fill="#36936a"/><circle cx="234.3" cy="228" r="3.1" fill="#36936a"/><circle cx="230.4" cy="236.2" r="3" fill="#36936a"/><circle cx="223.7" cy="243.6" r="3" fill="#36936a"/><circle cx="214.5" cy="249" r="2.9" fill="#36936a"/><circle cx="203.3" cy="251.8" r="2.9" fill="#36936a"/><circle cx="191" cy="251.1" r="2.8" fill="#36936a"/><circle cx="178.7" cy="246.8" r="2.8" fill="#36936a"/><circle cx="167.4" cy="238.7" r="2.8" fill="#36936a"/><circle cx="158.4" cy="227" r="2.7" fill="#36936a"/><circle cx="152.7" cy="212.6" r="2.7" fill="#36936a"/><circle cx="151.1" cy="196.4" r="2.6" fill="#36936a"/><circle cx="154.4" cy="179.5" r="2.6" fill="#36936a"/><circle cx="162.5" cy="163.5" r="2.5" fill="#36936a"/><circle cx="175.3" cy="149.8" r="2.5" fill="#36936a"/><circle cx="192" cy="139.8" r="2.5" fill="#36936a"/><circle cx="211.7" cy="134.5" r="2.4" fill="#36936a"/><circle cx="232.9" cy="134.9" r="2.4" fill="#36936a"/><circle cx="254" cy="141.3" r="2.3" transform="translate(73.84 369.39) rotate(-80.78)" fill="#36936a"/><circle cx="273.1" cy="153.7" r="2.3" fill="#36936a"/><circle cx="288.7" cy="171.5" r="2.2" fill="#36936a"/><circle cx="299.1" cy="193.6" r="2.2" fill="#36936a"/><circle cx="303.3" cy="218.5" r="2.2" fill="#36936a"/><circle cx="300.3" cy="244.4" r="2.1" fill="#36936a"/><circle cx="290.1" cy="269.3" r="2.1" fill="#36936a"/><circle cx="273" cy="291.1" r="2" fill="#36936a"/><circle cx="249.9" cy="307.9" r="2" fill="#36936a"/><circle cx="222.4" cy="318.1" r="1.9" fill="#36936a"/><circle cx="192.3" cy="320.4" r="1.9" fill="#36936a"/><circle cx="161.9" cy="314.2" r="1.8" fill="#36936a"/><circle cx="133.6" cy="299.7" r="1.8" fill="#36936a"/><circle cx="109.7" cy="277.4" r="1.8" fill="#36936a"/><circle cx="92.4" cy="248.8" r="1.7" fill="#36936a"/><circle cx="83.3" cy="215.8" r="1.7" fill="#36936a"/><circle cx="83.5" cy="180.7" r="1.6" fill="#36936a"/><circle cx="93.4" cy="146.2" r="1.6" fill="#36936a"/><circle cx="112.8" cy="115" r="1.5" fill="#36936a"/><circle cx="140.5" cy="89.7" r="1.5" fill="#36936a"/><circle cx="174.8" cy="72.4" r="1.5" fill="#36936a"/><circle cx="213.3" cy="65" r="1.4" fill="#36936a"/><circle cx="253.2" cy="68.4" r="1.4" fill="#36936a"/><circle cx="291.4" cy="82.8" r="1.3" fill="#36936a"/><circle cx="325" cy="107.4" r="1.3" fill="#36936a"/><circle cx="351.1" cy="140.9" r="1.2" fill="#36936a"/><circle cx="367.5" cy="181" r="1.2" fill="#36936a"/><circle cx="372.5" cy="224.8" r="1.2" fill="#36936a"/><circle cx="365.3" cy="269.2" r="1.1" fill="#36936a"/><circle cx="346" cy="310.7" r="1.1" fill="#36936a"/><circle cx="315.6" cy="346" r="1" fill="#36936a"/><circle cx="276.1" cy="372.3" r="1" fill="#36936a"/><circle cx="230.2" cy="387.1" r=".9" fill="#36936a"/><circle cx="181.2" cy="389" r=".9" fill="#36936a"/><circle cx="132.8" cy="377.3" r=".8" fill="#36936a"/><circle cx="88.5" cy="352.6" r=".8" fill="#36936a"/><circle cx="52.1" cy="316.2" r=".8" fill="#36936a"/><circle cx="26.4" cy="270.6" r=".7" fill="#36936a"/><circle cx="13.8" cy="218.9" r=".7" fill="#36936a"/><circle cx="15.8" cy="165" r=".6" fill="#36936a"/><circle cx="32.5" cy="112.8" r=".6" fill="#36936a"/><circle cx="63.1" cy="66.4" r=".5" fill="#36936a"/><circle cx="210" cy="210" r="3.5" fill="#36936a"/><circle cx="211.3" cy="207.3" r="3.5" fill="#36936a"/><circle cx="214" cy="205.5" r="3.4" fill="#36936a"/><circle cx="217.6" cy="205.1" r="3.4" fill="#36936a"/><circle cx="221.5" cy="206.4" r="3.3" fill="#36936a"/><circle cx="225.1" cy="209.5" r="3.3" fill="#36936a"/><circle cx="227.6" cy="214.4" r="3.2" fill="#36936a"/><circle cx="228.4" cy="220.4" r="3.2" fill="#36936a"/><circle cx="227" cy="227.2" r="3.2" fill="#36936a"/><circle cx="223.2" cy="233.7" r="3.1" fill="#36936a"/><circle cx="217" cy="239.4" r="3.1" fill="#36936a"/><circle cx="208.7" cy="243.2" r="3" fill="#36936a"/><circle cx="198.9" cy="244.5" r="3" fill="#36936a"/><circle cx="188.3" cy="242.8" r="2.9" fill="#36936a"/><circle cx="178" cy="237.7" r="2.9" fill="#36936a"/><circle cx="169" cy="229.3" r="2.8" fill="#36936a"/><circle cx="162.3" cy="218" r="2.8" fill="#36936a"/><circle cx="158.9" cy="204.6" r="2.8" fill="#36936a"/><circle cx="159.5" cy="189.9" r="2.7" fill="#36936a"/><circle cx="164.4" cy="175.1" r="2.7" fill="#36936a"/><circle cx="173.7" cy="161.7" r="2.6" fill="#36936a"/><circle cx="187" cy="150.9" r="2.6" fill="#36936a"/><circle cx="203.5" cy="143.9" r="2.5" fill="#36936a"/><circle cx="222.1" cy="141.6" r="2.5" fill="#36936a"/><circle cx="241.4" cy="144.6" r="2.5" fill="#36936a"/><circle cx="259.9" cy="153.3" r="2.4" fill="#36936a"/><circle cx="275.8" cy="167.2" r="2.4" fill="#36936a"/><circle cx="287.8" cy="185.6" r="2.3" fill="#36936a"/><circle cx="294.5" cy="207.4" r="2.3" fill="#36936a"/><circle cx="295" cy="231.1" r="2.2" fill="#36936a"/><circle cx="288.8" cy="254.7" r="2.2" fill="#36936a"/><circle cx="276" cy="276.5" r="2.2" fill="#36936a"/><circle cx="257.1" cy="294.4" r="2.1" fill="#36936a"/><circle cx="233.2" cy="306.9" r="2.1" fill="#36936a"/><circle cx="206.1" cy="312.6" r="2" fill="#36936a"/><circle cx="177.6" cy="310.7" r="2" fill="#36936a"/><circle cx="150" cy="300.7" r="1.9" fill="#36936a"/><circle cx="125.5" cy="283.1" r="1.9" fill="#36936a"/><circle cx="106.1" cy="258.9" r="1.8" fill="#36936a"/><circle cx="93.8" cy="229.6" r="1.8" fill="#36936a"/><circle cx="89.8" cy="197.2" r="1.8" fill="#36936a"/><circle cx="94.9" cy="164.1" r="1.7" fill="#36936a"/><circle cx="109.2" cy="133" r="1.7" fill="#36936a"/><circle cx="131.9" cy="106.2" r="1.6" fill="#36936a"/><circle cx="161.7" cy="86.2" r="1.6" fill="#36936a"/><circle cx="196.6" cy="74.7" r="1.5" fill="#36936a"/><circle cx="234.1" cy="73.1" r="1.5" fill="#36936a"/><circle cx="271.5" cy="82" r="1.5" fill="#36936a"/><circle cx="305.7" cy="101.1" r="1.4" fill="#36936a"/><circle cx="334.1" cy="129.3" r="1.4" fill="#36936a"/><circle cx="354.1" cy="164.9" r="1.3" fill="#36936a"/><circle cx="364" cy="205.3" r="1.3" fill="#36936a"/><circle cx="362.5" cy="247.8" r="1.2" fill="#36936a"/><circle cx="349.3" cy="289" r="1.2" fill="#36936a"/><circle cx="324.9" cy="325.8" r="1.2" fill="#36936a"/><circle cx="290.9" cy="355.1" r="1.1" fill="#36936a"/><circle cx="249.4" cy="374.5" r="1.1" fill="#36936a"/><circle cx="203.5" cy="382.1" r="1" fill="#36936a"/><circle cx="156.4" cy="376.8" r="1" fill="#36936a"/><circle cx="111.7" cy="358.7" r=".9" fill="#36936a"/><circle cx="72.9" cy="328.6" r=".9" fill="#36936a"/><circle cx="43.3" cy="288.5" r=".8" fill="#36936a"/><circle cx="25.3" cy="241.1" r=".8" fill="#36936a"/><circle cx="20.8" cy="189.8" r=".8" fill="#36936a"/><circle cx="30.4" cy="138.4" r=".7" fill="#36936a"/><circle cx="54" cy="90.8" r=".7" fill="#36936a"/><circle cx="90.1" cy="50.7" r=".6" fill="#36936a"/><circle cx="136.5" cy="21.4" r=".6" fill="#36936a"/><circle cx="189.8" cy="5.6" r=".5" fill="#36936a"/><circle cx="210" cy="210" r="3.5" fill="#36936a"/><circle cx="212.8" cy="208.8" r="3.5" fill="#36936a"/><circle cx="216" cy="209.1" r="3.4" fill="#36936a"/><circle cx="219" cy="211.1" r="3.4" fill="#36936a"/><circle cx="221.2" cy="214.6" r="3.3" fill="#36936a"/><circle cx="221.9" cy="219.4" r="3.3" fill="#36936a"/><circle cx="220.7" cy="224.6" r="3.2" fill="#36936a"/><circle cx="217.4" cy="229.8" r="3.2" fill="#36936a"/><circle cx="212" cy="234.1" r="3.2" fill="#36936a"/><circle cx="204.9" cy="236.7" r="3.1" fill="#36936a"/><circle cx="196.5" cy="237" r="3.1" fill="#36936a"/><circle cx="187.7" cy="234.6" r="3" fill="#36936a"/><circle cx="179.3" cy="229.3" r="3" fill="#36936a"/><circle cx="172.3" cy="221.2" r="2.9" fill="#36936a"/><circle cx="167.7" cy="210.6" r="2.9" fill="#36936a"/><circle cx="166.2" cy="198.4" r="2.8" fill="#36936a"/><circle cx="168.3" cy="185.5" r="2.8" fill="#36936a"/><circle cx="174.4" cy="173" r="2.8" fill="#36936a"/><circle cx="184.3" cy="162.1" r="2.7" fill="#36936a"/><circle cx="197.5" cy="154" r="2.7" fill="#36936a"/><circle cx="213.2" cy="149.7" r="2.6" fill="#36936a"/><circle cx="230.3" cy="149.9" r="2.6" fill="#36936a"/><circle cx="247.5" cy="155.1" r="2.5" fill="#36936a"/><circle cx="263.2" cy="165.3" r="2.5" fill="#36936a"/><circle cx="276.1" cy="180.1" r="2.5" fill="#36936a"/><circle cx="284.7" cy="198.6" r="2.4" fill="#36936a"/><circle cx="288" cy="219.5" r="2.4" fill="#36936a"/><circle cx="285.3" cy="241.4" r="2.3" fill="#36936a"/><circle cx="276.4" cy="262.4" r="2.3" fill="#36936a"/><circle cx="261.6" cy="280.8" r="2.2" fill="#36936a"/><circle cx="241.6" cy="294.9" r="2.2" fill="#36936a"/><circle cx="217.8" cy="303.3" r="2.2" fill="#36936a"/><circle cx="191.8" cy="304.9" r="2.1" fill="#36936a"/><circle cx="165.5" cy="299.2" r="2.1" fill="#36936a"/><circle cx="141" cy="286.1" r="2" fill="#36936a"/><circle cx="120.5" cy="266.3" r="2" fill="#36936a"/><circle cx="105.7" cy="240.9" r="1.9" fill="#36936a"/><circle cx="98.2" cy="211.7" r="1.9" fill="#36936a"/><circle cx="99" cy="180.7" r="1.8" fill="#36936a"/><circle cx="108.4" cy="150.3" r="1.8" fill="#36936a"/><circle cx="126.2" cy="122.9" r="1.8" fill="#36936a"/><circle cx="151.4" cy="100.9" r="1.7" fill="#36936a"/><circle cx="182.3" cy="86.2" r="1.7" fill="#36936a"/><circle cx="216.9" cy="80.3" r="1.6" fill="#36936a"/><circle cx="252.6" cy="84.1" r="1.6" fill="#36936a"/><circle cx="286.7" cy="97.8" r="1.5" fill="#36936a"/><circle cx="316.5" cy="120.7" r="1.5" fill="#36936a"/><circle cx="339.4" cy="151.5" r="1.5" fill="#36936a"/><circle cx="353.3" cy="188.1" r="1.4" fill="#36936a"/><circle cx="356.9" cy="227.9" r="1.4" fill="#36936a"/><circle cx="349.4" cy="268.1" r="1.3" fill="#36936a"/><circle cx="331" cy="305.4" r="1.3" fill="#36936a"/><circle cx="302.5" cy="336.9" r="1.2" fill="#36936a"/><circle cx="265.9" cy="360" r="1.2" fill="#36936a"/><circle cx="223.6" cy="372.6" r="1.2" fill="#36936a"/><circle cx="178.7" cy="373.2" r="1.1" fill="#36936a"/><circle cx="134.5" cy="361.4" r="1.1" fill="#36936a"/><circle cx="94.4" cy="337.6" r="1" fill="#36936a"/><circle cx="61.7" cy="303.3" r="1" fill="#36936a"/><circle cx="39.1" cy="260.7" r=".9" fill="#36936a"/><circle cx="28.8" cy="212.8" r=".9" fill="#36936a"/><circle cx="31.8" cy="163" r=".8" fill="#36936a"/><circle cx="48.5" cy="115.1" r=".8" fill="#36936a"/><circle cx="78" cy="72.9" r=".8" fill="#36936a"/><circle cx="118.5" cy="39.7" r=".7" fill="#36936a"/><circle cx="167.1" cy="18.4" r=".7" fill="#36936a"/><circle cx="220.6" cy="10.9" r=".6" fill="#36936a"/><circle cx="274.9" cy="18.3" r=".6" fill="#36936a"/><circle cx="325.9" cy="40.4" r=".5" fill="#36936a"/></g></g></g></svg>