<?xml version="1.0" encoding="UTF-8"?><svg id="a" xmlns="http://www.w3.org/2000/svg" width="420" height="420" viewBox="0 0 420 420"><g id="b"><g id="c"><ellipse cx="395.95" cy="337.53" rx=".34" ry=".52" transform="translate(-12.94 15.8) rotate(-2.25)" fill="#7b6bb0" isolation="isolate" opacity=".14"/><ellipse cx="407.23" cy="333.56" rx=".84" ry="1.27" transform="translate(-12.77 16.24) rotate(-2.25)" fill="#7b6bb0" isolation="isolate" opacity=".21"/><ellipse cx="398.88" cy="350.66" rx="2.87" ry="4.33" transform="translate(-13.45 15.92) rotate(-2.25)" fill="#7b6bb0" isolation="isolate" opacity=".09"/><ellipse cx="315.73" cy="198.36" rx=".31" ry=".46" transform="translate(-7.54 12.54) rotate(-2.25)" fill="#7b6bb0" isolation="isolate" opacity=".12"/><ellipse cx="387.32" cy="344.69" rx="1.34" ry="2.02" transform="translate(-13.23 15.46) rotate(-2.25)" fill="#7b6bb0" isolation="isolate" opacity=".23"/><ellipse cx="400.11" cy="306.1" rx=".34" ry=".52" transform="translate(-11.7 15.94) rotate(-2.25)" fill="#7b6bb0" isolation="isolate" opacity=".18"/><ellipse cx="387.14" cy="304.93" rx=".69" ry="1.04" transform="translate(-11.67 15.43) rotate(-2.25)" fill="#7b6bb0" isolation="isolate" opacity=".14"/><ellipse cx="400.79" cy="287.46" rx=".84" ry="1.27" transform="translate(-10.97 15.95) rotate(-2.25)" fill="#7b6bb0" isolation="isolate" opacity=".17"/><ellipse cx="290.84" cy="365.02" rx="2.64" ry="3.99" transform="translate(-14.1 11.69) rotate(-2.25)" fill="#7b6bb0" isolation="isolate" opacity=".25"/><ellipse cx="312.62" cy="404.51" rx=".38" ry=".58" transform="translate(-15.63 12.58) rotate(-2.25)" fill="#7b6bb0" isolation="isolate" opacity=".18"/><ellipse cx="386.15" cy="254.39" rx="2.83" ry="4.27" transform="translate(-9.68 15.35) rotate(-2.25)" fill="#7b6bb0" isolation="isolate" opacity=".24"/><ellipse cx="382.72" cy="318.86" rx=".23" ry=".35" transform="translate(-12.22 15.26) rotate(-2.25)" fill="#7b6bb0" isolation="isolate" opacity=".14"/><ellipse cx="359.21" cy="339.55" rx="1.91" ry="2.89" transform="translate(-13.05 14.36) rotate(-2.25)" fill="#7b6bb0" isolation="isolate" opacity=".28"/><ellipse cx="376.96" cy="277.35" rx=".5" ry=".75" transform="translate(-10.59 15) rotate(-2.25)" fill="#7b6bb0" isolation="isolate" opacity=".23"/><ellipse cx="393.12" cy="289.72" rx=".5" ry=".75" transform="translate(-11.07 15.65) rotate(-2.25)" fill="#7b6bb0" isolation="isolate" opacity=".19"/><ellipse cx="393.52" cy="243.4" rx=".42" ry=".64" transform="translate(-9.25 15.63) rotate(-2.25)" fill="#7b6bb0" isolation="isolate" opacity=".2"/><circle cx="28.1" cy="324.8" r="2.2" fill="#7b6bb0" isolation="isolate" opacity=".2"/><circle cx="291.3" cy="99.1" r="1.8" fill="#7b6bb0" isolation="isolate" opacity=".27"/><circle cx="54.4" cy="307.8" r="1.8" fill="#7b6bb0" isolation="isolate" opacity=".14"/><circle cx="201.7" cy="53.7" r=".9" fill="#7b6bb0" isolation="isolate" opacity=".22"/><circle cx="177.1" cy="110.5" r="2.8" fill="#7b6bb0" isolation="isolate" opacity=".16"/><circle cx="350.5" cy="402" r="1.6" fill="#7b6bb0" isolation="isolate" opacity=".13"/><circle cx="137.7" cy="81.8" r="6.3" fill="#7b6bb0" isolation="isolate" opacity=".21"/><circle cx="200.4" cy="412.3" r=".7" fill="#7b6bb0" isolation="isolate" opacity=".25"/><circle cx="338.7" cy="191" r="1.1" fill="#7b6bb0" isolation="isolate" opacity=".09"/><circle cx="287" cy="35.9" r="1.7" fill="#7b6bb0" isolation="isolate" opacity=".09"/><circle cx="118.6" cy="23.7" r=".6" fill="#7b6bb0" isolation="isolate" opacity=".13"/><circle cx="344.2" cy="38.3" r="1.1" fill="#7b6bb0" isolation="isolate" opacity=".24"/><circle cx="67.5" cy="21.8" r="1.1" fill="#7b6bb0" isolation="isolate" opacity=".26"/><circle cx="329.1" cy="123.5" r="4.1" fill="#7b6bb0" isolation="isolate" opacity=".23"/><circle cx="189.5" cy="89.2" r="2.3" fill="#7b6bb0" isolation="isolate" opacity=".18"/><circle cx="87.5" cy="230.3" r="2.4" fill="#7b6bb0" isolation="isolate" opacity=".24"/></g></g></svg>