<?xml version="1.0" encoding="UTF-8"?><svg id="a" xmlns="http://www.w3.org/2000/svg" width="420" height="420" viewBox="0 0 420 420"><g id="b"><g id="c"><ellipse cx="195.4" cy="160.72" rx=".8" ry=".82" fill="#f7ec13" isolation="isolate" opacity=".25"/><ellipse cx="276.9" cy="408.99" rx=".6" ry=".62" fill="#f7ec13" isolation="isolate" opacity=".46"/><ellipse cx="88.3" cy="267.74" rx=".6" ry=".62" fill="#f7ec13" isolation="isolate" opacity=".34"/><ellipse cx="217.7" cy="258.38" rx=".4" ry=".41" fill="#f7ec13" isolation="isolate" opacity=".53"/><ellipse cx="353.5" cy="260.85" rx="1.2" ry="1.23" fill="#f7ec13" isolation="isolate" opacity=".53"/><ellipse cx="274.5" cy="234.12" rx=".4" ry=".41" fill="#f7ec13" isolation="isolate" opacity=".52"/><ellipse cx="309.2" cy="35.2" rx="1" ry="1.03" fill="#f7ec13" isolation="isolate" opacity=".5"/><ellipse cx="7.7" cy="60.9" rx=".7" ry=".72" fill="#f7ec13" isolation="isolate" opacity=".55"/><ellipse cx="49.5" cy="186.01" rx="1.1" ry="1.13" fill="#f7ec13" isolation="isolate" opacity=".37"/><ellipse cx="383.4" cy="119.5" rx="1" ry="1.03" fill="#f7ec13" isolation="isolate" opacity=".43"/><ellipse cx="119.5" cy="136.77" rx=".6" ry=".62" fill="#f7ec13" isolation="isolate" opacity=".29"/><ellipse cx="295.9" cy="224.46" rx=".4" ry=".41" fill="#f7ec13" isolation="isolate" opacity=".13"/><ellipse cx="324" cy="124.02" rx="1.2" ry="1.23" fill="#f7ec13" isolation="isolate" opacity=".41"/><ellipse cx="112.2" cy="50.21" rx="1" ry="1.03" fill="#f7ec13" isolation="isolate" opacity=".35"/><ellipse cx="134.5" cy="58.43" rx=".4" ry=".41" fill="#f7ec13" isolation="isolate" opacity=".31"/><ellipse cx="208.7" cy="233.92" rx=".4" ry=".41" fill="#f7ec13" isolation="isolate" opacity=".45"/><ellipse cx="307.5" cy="267.95" rx=".9" ry=".93" fill="#f7ec13" isolation="isolate" opacity=".53"/><ellipse cx="209.3" cy="349.67" rx=".9" ry=".93" fill="#f7ec13" isolation="isolate" opacity=".3"/><ellipse cx="313.4" cy="244.1" rx=".4" ry=".41" fill="#f7ec13" isolation="isolate" opacity=".28"/><ellipse cx="291.6" cy="58.33" rx=".7" ry=".72" fill="#f7ec13" isolation="isolate" opacity=".53"/><ellipse cx="177" cy="294.57" rx=".9" ry=".93" fill="#f7ec13" isolation="isolate" opacity=".27"/><ellipse cx="393" cy="250.47" rx=".4" ry=".41" fill="#f7ec13" isolation="isolate" opacity=".2"/><ellipse cx="240" cy="96.99" rx=".8" ry=".82" fill="#f7ec13" isolation="isolate" opacity=".53"/><ellipse cx="6.3" cy="30.78" rx=".8" ry=".82" fill="#f7ec13" isolation="isolate" opacity=".26"/><ellipse cx="24.3" cy="223.33" rx=".4" ry=".41" fill="#f7ec13" isolation="isolate" opacity=".32"/><ellipse cx="284.2" cy="167.61" rx=".5" ry=".51" fill="#f7ec13" isolation="isolate" opacity=".48"/><ellipse cx="308.8" cy="46.3" rx="1" ry="1.03" fill="#f7ec13" isolation="isolate" opacity=".48"/><ellipse cx="264" cy="83.83" rx=".6" ry=".62" fill="#f7ec13" isolation="isolate" opacity=".47"/><ellipse cx="10.8" cy="72.42" rx=".9" ry=".93" fill="#f7ec13" isolation="isolate" opacity=".41"/><ellipse cx="303.6" cy="163.4" rx=".7" ry=".72" fill="#f7ec13" isolation="isolate" opacity=".41"/><ellipse cx="416.6" cy="385.65" rx=".4" ry=".41" fill="#f7ec13" isolation="isolate" opacity=".51"/><ellipse cx="226.5" cy="367.36" rx=".4" ry=".41" fill="#f7ec13" isolation="isolate" opacity=".13"/><ellipse cx="174.3" cy="404.78" rx=".6" ry=".62" fill="#f7ec13" isolation="isolate" opacity=".28"/><ellipse cx="325.1" cy="415.98" rx=".7" ry=".72" fill="#f7ec13" isolation="isolate" opacity=".33"/><ellipse cx="88.5" cy="59.05" rx=".4" ry=".41" fill="#f7ec13" isolation="isolate" opacity=".45"/><ellipse cx="202.6" cy="282.23" rx="1.1" ry="1.13" fill="#f7ec13" isolation="isolate" opacity=".44"/><ellipse cx="409.1" cy="131.32" rx=".5" ry=".51" fill="#f7ec13" isolation="isolate" opacity=".42"/><ellipse cx="40.6" cy="283.06" rx=".5" ry=".51" fill="#f7ec13" isolation="isolate" opacity=".54"/><ellipse cx="46.5" cy="410.02" rx=".8" ry=".82" fill="#f7ec13" isolation="isolate" opacity=".35"/><ellipse cx="181.7" cy="165.86" rx=".4" ry=".41" fill="#f7ec13" isolation="isolate" opacity=".53"/><ellipse cx="265" cy="378.56" rx=".4" ry=".41" fill="#f7ec13" isolation="isolate" opacity=".5"/><ellipse cx="231" cy="238.75" rx=".4" ry=".41" fill="#f7ec13" isolation="isolate" opacity=".53"/><ellipse cx="306.3" cy="221.68" rx=".4" ry=".41" fill="#f7ec13" isolation="isolate" opacity=".35"/><ellipse cx="321" cy="308.55" rx="1.2" ry="1.23" fill="#f7ec13" isolation="isolate" opacity=".32"/><ellipse cx="372.9" cy="182.62" rx=".4" ry=".41" fill="#f7ec13" isolation="isolate" opacity=".36"/><ellipse cx="233.4" cy="262.39" rx="1" ry="1.03" fill="#f7ec13" isolation="isolate" opacity=".38"/><ellipse cx="99.8" cy="298.99" rx=".4" ry=".41" fill="#f7ec13" isolation="isolate" opacity=".55"/><ellipse cx="250.8" cy="169.56" rx=".4" ry=".41" fill="#f7ec13" isolation="isolate" opacity=".39"/><ellipse cx="223" cy="135.43" rx=".5" ry=".51" fill="#f7ec13" isolation="isolate" opacity=".53"/><ellipse cx="115.7" cy="82.08" rx=".9" ry=".93" fill="#f7ec13" isolation="isolate" opacity=".23"/><ellipse cx="284.2" cy="347.41" rx=".8" ry=".82" fill="#f7ec13" isolation="isolate" opacity=".42"/><ellipse cx="404" cy="340.63" rx="1" ry="1.03" fill="#f7ec13" isolation="isolate" opacity=".38"/><ellipse cx="296.3" cy="391.62" rx=".4" ry=".41" fill="#f7ec13" isolation="isolate" opacity=".21"/><ellipse cx="14.4" cy="112.3" rx="1.1" ry="1.13" fill="#f7ec13" isolation="isolate" opacity=".15"/><ellipse cx="292" cy="303.1" rx=".6" ry=".62" fill="#f7ec13" isolation="isolate" opacity=".53"/><ellipse cx="318.2" cy="227.13" rx=".4" ry=".41" fill="#f7ec13" isolation="isolate" opacity=".17"/><ellipse cx="150.8" cy="261.37" rx=".9" ry=".93" fill="#f7ec13" isolation="isolate" opacity=".44"/><ellipse cx="411.7" cy="199.89" rx=".4" ry=".41" fill="#f7ec13" isolation="isolate" opacity=".36"/><ellipse cx="398" cy="83.93" rx=".5" ry=".51" fill="#f7ec13" isolation="isolate" opacity=".52"/><ellipse cx="186.6" cy="186.94" rx="1.1" ry="1.13" fill="#f7ec13" isolation="isolate" opacity=".14"/><ellipse cx="216" cy="99.76" rx=".7" ry=".72" fill="#f7ec13" isolation="isolate" opacity=".28"/><ellipse cx="88.6" cy="201.02" rx="1.1" ry="1.13" fill="#f7ec13" isolation="isolate" opacity=".25"/><ellipse cx="357.9" cy="213.77" rx=".8" ry=".82" fill="#f7ec13" isolation="isolate" opacity=".13"/><ellipse cx="272.4" cy="9.6" rx="1.1" ry="1.13" fill="#f7ec13" isolation="isolate" opacity=".37"/><ellipse cx="348.4" cy="43.63" rx=".4" ry=".41" fill="#f7ec13" isolation="isolate" opacity=".32"/><ellipse cx="130.5" cy="229.5" rx="1.2" ry="1.23" fill="#f7ec13" isolation="isolate" opacity=".18"/><ellipse cx="394.1" cy="33.76" rx=".7" ry=".72" fill="#f7ec13" isolation="isolate" opacity=".32"/><ellipse cx="268.5" cy="398.92" rx=".4" ry=".41" fill="#f7ec13" isolation="isolate" opacity=".48"/><ellipse cx="204.8" cy="383.5" rx=".8" ry=".82" fill="#f7ec13" isolation="isolate" opacity=".13"/><ellipse cx="169.8" cy="155.69" rx=".4" ry=".41" fill="#f7ec13" isolation="isolate" opacity=".34"/><ellipse cx="54.6" cy="244.71" rx=".7" ry=".72" fill="#f7ec13" isolation="isolate" opacity=".27"/><ellipse cx="284.9" cy="100.79" rx=".4" ry=".41" fill="#f7ec13" isolation="isolate" opacity=".43"/><ellipse cx="176.8" cy="77.56" rx=".8" ry=".82" fill="#f7ec13" isolation="isolate" opacity=".42"/><path d="M167.2,137.9c.22,0,.4.18.4.41s-.18.41-.4.41-.4-.18-.4-.41.18-.41.4-.41Z" fill="#f7ec13" isolation="isolate" opacity=".48"/><ellipse cx="349.6" cy="61.72" rx=".7" ry=".72" fill="#f7ec13" isolation="isolate" opacity=".53"/><ellipse cx="177.5" cy="348.75" rx=".7" ry=".72" fill="#f7ec13" isolation="isolate" opacity=".53"/><ellipse cx="343.4" cy="310.09" rx=".4" ry=".41" fill="#f7ec13" isolation="isolate" opacity=".44"/><ellipse cx="332.6" cy="398.81" rx=".5" ry=".51" fill="#f7ec13" isolation="isolate" opacity=".46"/><ellipse cx="172.3" cy="363.86" rx="1.1" ry="1.13" fill="#f7ec13" isolation="isolate" opacity=".51"/><ellipse cx="28.8" cy="393.06" rx="1.2" ry="1.23" fill="#f7ec13" isolation="isolate" opacity=".24"/><ellipse cx="128.7" cy="33.87" rx=".4" ry=".41" fill="#f7ec13" isolation="isolate" opacity=".28"/><ellipse cx="279.5" cy="309.48" rx=".8" ry=".82" fill="#f7ec13" isolation="isolate" opacity=".3"/><ellipse cx="179.5" cy="151.78" rx=".9" ry=".93" fill="#f7ec13" isolation="isolate" opacity=".47"/><ellipse cx="114.5" cy="394.19" rx=".9" ry=".93" fill="#f7ec13" isolation="isolate" opacity=".43"/><ellipse cx="273.4" cy="113.02" rx="1.2" ry="1.23" fill="#f7ec13" isolation="isolate" opacity=".54"/><ellipse cx="176" cy="227.54" rx=".9" ry=".93" fill="#f7ec13" isolation="isolate" opacity=".38"/><ellipse cx="391.1" cy="258.8" rx=".4" ry=".41" fill="#f7ec13" isolation="isolate" opacity=".48"/><ellipse cx="408.5" cy="9.4" rx="1.2" ry="1.23" fill="#f7ec13" isolation="isolate" opacity=".26"/><ellipse cx="87.2" cy="292.41" rx=".9" ry=".93" fill="#f7ec13" isolation="isolate" opacity=".44"/><ellipse cx="92.8" cy="193.72" rx=".5" ry=".51" fill="#f7ec13" isolation="isolate" opacity=".42"/><ellipse cx="101.3" cy="354.4" rx=".4" ry=".41" fill="#f7ec13" isolation="isolate" opacity=".43"/><ellipse cx="29.1" cy="289.02" rx=".5" ry=".51" fill="#f7ec13" isolation="isolate" opacity=".5"/><ellipse cx="241.2" cy="251.81" rx=".6" ry=".62" fill="#f7ec13" isolation="isolate" opacity=".55"/><ellipse cx="100.4" cy="304.23" rx="1" ry="1.03" fill="#f7ec13" isolation="isolate" opacity=".19"/><ellipse cx="163.3" cy="184.37" rx=".5" ry=".51" fill="#f7ec13" isolation="isolate" opacity=".28"/><ellipse cx="42.9" cy="265.48" rx=".8" ry=".82" fill="#f7ec13" isolation="isolate" opacity=".23"/><ellipse cx="229.2" cy="156.82" rx=".4" ry=".41" fill="#f7ec13" isolation="isolate" opacity=".48"/><ellipse cx="389.3" cy="356.56" rx=".5" ry=".51" fill="#f7ec13" isolation="isolate" opacity=".46"/><ellipse cx="180.4" cy="33.45" rx=".8" ry=".82" fill="#f7ec13" isolation="isolate" opacity=".17"/><ellipse cx="241" cy="162.16" rx=".6" ry=".62" fill="#f7ec13" isolation="isolate" opacity=".25"/><ellipse cx="291" cy="183.13" rx=".4" ry=".41" fill="#f7ec13" isolation="isolate" opacity=".49"/><ellipse cx="105.1" cy="243.48" rx=".9" ry=".93" fill="#f7ec13" isolation="isolate" opacity=".46"/><ellipse cx="296" cy="39.11" rx=".5" ry=".51" fill="#f7ec13" isolation="isolate" opacity=".54"/><ellipse cx="70.9" cy="172.55" rx=".4" ry=".41" fill="#f7ec13" isolation="isolate" opacity=".42"/><ellipse cx="199.5" cy="73.34" rx=".5" ry=".51" fill="#f7ec13" isolation="isolate" opacity=".47"/><ellipse cx="321" cy="73.55" rx="1.2" ry="1.23" fill="#f7ec13" isolation="isolate" opacity=".29"/><ellipse cx="260.6" cy="241.94" rx=".5" ry=".51" fill="#f7ec13" isolation="isolate" opacity=".5"/><ellipse cx="312" cy="253.24" rx=".5" ry=".51" fill="#f7ec13" isolation="isolate" opacity=".5"/><ellipse cx="279.8" cy="155.07" rx=".5" ry=".51" fill="#f7ec13" isolation="isolate" opacity=".45"/><ellipse cx="84.4" cy="50.62" rx=".5" ry=".51" fill="#f7ec13" isolation="isolate" opacity=".53"/><ellipse cx="296.7" cy="295.6" rx="1.1" ry="1.13" fill="#f7ec13" isolation="isolate" opacity=".2"/><ellipse cx="214.9" cy="273.81" rx=".4" ry=".41" fill="#f7ec13" isolation="isolate" opacity=".52"/><ellipse cx="200.7" cy="260.54" rx=".4" ry=".41" fill="#f7ec13" isolation="isolate" opacity=".35"/><ellipse cx="147.1" cy="332.81" rx=".4" ry=".41" fill="#f7ec13" isolation="isolate" opacity=".49"/><ellipse cx="116.6" cy="301.36" rx=".4" ry=".41" fill="#f7ec13" isolation="isolate" opacity=".43"/><ellipse cx="396.5" cy="192.18" rx=".5" ry=".51" fill="#f7ec13" isolation="isolate" opacity=".45"/><ellipse cx="331.4" cy="399.22" rx=".4" ry=".41" fill="#f7ec13" isolation="isolate" opacity=".46"/><ellipse cx="1.8" cy="331.07" rx=".5" ry=".51" fill="#f7ec13" isolation="isolate" opacity=".47"/><ellipse cx="73.1" cy="75.6" rx=".6" ry=".62" fill="#f7ec13" isolation="isolate" opacity=".41"/><ellipse cx="60.8" cy="399.12" rx=".7" ry=".72" fill="#f7ec13" isolation="isolate" opacity=".26"/><ellipse cx="82.9" cy="52.88" rx=".4" ry=".41" fill="#f7ec13" isolation="isolate" opacity=".52"/><ellipse cx="135.7" cy="105.62" rx=".8" ry=".82" fill="#f7ec13" isolation="isolate" opacity=".2"/><ellipse cx="372" cy="153.84" rx=".7" ry=".72" fill="#f7ec13" isolation="isolate" opacity=".47"/><ellipse cx="108.6" cy="256.95" rx=".6" ry=".62" fill="#f7ec13" isolation="isolate" opacity=".21"/><ellipse cx="319.9" cy="116.31" rx=".4" ry=".41" fill="#f7ec13" isolation="isolate" opacity=".38"/><ellipse cx="127.1" cy="137.08" rx="1" ry="1.03" fill="#f7ec13" isolation="isolate" opacity=".52"/><ellipse cx="34.7" cy="171.21" rx=".9" ry=".93" fill="#f7ec13" isolation="isolate" opacity=".17"/><ellipse cx="409.1" cy="112.2" rx=".9" ry=".93" fill="#f7ec13" isolation="isolate" opacity=".48"/><ellipse cx="220" cy="179.43" rx=".6" ry=".62" fill="#f7ec13" isolation="isolate" opacity=".38"/><ellipse cx="25.5" cy="199.38" rx=".4" ry=".41" fill="#f7ec13" isolation="isolate" opacity=".22"/><ellipse cx="308.7" cy="30.06" rx=".5" ry=".51" fill="#f7ec13" isolation="isolate" opacity=".55"/><ellipse cx="217.8" cy="304.85" rx=".4" ry=".41" fill="#f7ec13" isolation="isolate" opacity=".14"/><ellipse cx="41.5" cy="406.42" rx=".7" ry=".72" fill="#f7ec13" isolation="isolate" opacity=".52"/><ellipse cx="290.6" cy="177.07" rx=".8" ry=".82" fill="#f7ec13" isolation="isolate" opacity=".46"/><ellipse cx="142.7" cy="183.96" rx=".4" ry=".41" fill="#f7ec13" isolation="isolate" opacity=".39"/><ellipse cx="25.9" cy="14.44" rx=".4" ry=".41" fill="#f7ec13" isolation="isolate" opacity=".31"/><ellipse cx="128" cy="273.81" rx=".9" ry=".93" fill="#f7ec13" isolation="isolate" opacity=".41"/><ellipse cx="176.3" cy="202.67" rx=".8" ry=".82" fill="#f7ec13" isolation="isolate" opacity=".53"/><ellipse cx="216.5" cy="375.07" rx=".4" ry=".41" fill="#f7ec13" isolation="isolate" opacity=".28"/><ellipse cx="274" cy="382.26" rx=".7" ry=".72" fill="#f7ec13" isolation="isolate" opacity=".18"/><ellipse cx="218.9" cy="131.32" rx=".7" ry=".72" fill="#f7ec13" isolation="isolate" opacity=".35"/><ellipse cx="232.7" cy="259.62" rx="1.2" ry="1.23" fill="#f7ec13" isolation="isolate" opacity=".33"/><ellipse cx="158.3" cy="186.32" rx=".4" ry=".41" fill="#f7ec13" isolation="isolate" opacity=".4"/><ellipse cx="12.5" cy="402.51" rx=".4" ry=".41" fill="#f7ec13" isolation="isolate" opacity=".16"/><ellipse cx="142" cy="64.71" rx=".8" ry=".82" fill="#f7ec13" isolation="isolate" opacity=".47"/><ellipse cx="324.1" cy="82.08" rx=".4" ry=".41" fill="#f7ec13" isolation="isolate" opacity=".51"/><ellipse cx="17.5" cy="189.3" rx="1.1" ry="1.13" fill="#f7ec13" isolation="isolate" opacity=".34"/><ellipse cx="353.3" cy="113.54" rx=".5" ry=".51" fill="#f7ec13" isolation="isolate" opacity=".29"/><ellipse cx="326" cy="220.96" rx=".6" ry=".62" fill="#f7ec13" isolation="isolate" opacity=".45"/><ellipse cx="166.2" cy="153.42" rx=".6" ry=".62" fill="#f7ec13" isolation="isolate" opacity=".31"/><ellipse cx="275.2" cy="263.94" rx=".7" ry=".72" fill="#f7ec13" isolation="isolate" opacity=".5"/><ellipse cx="178.5" cy="45.58" rx=".5" ry=".51" fill="#f7ec13" isolation="isolate" opacity=".42"/><ellipse cx="176.8" cy="192.18" rx=".5" ry=".51" fill="#f7ec13" isolation="isolate" opacity=".25"/><ellipse cx="385.1" cy="208.73" rx=".5" ry=".51" fill="#f7ec13" isolation="isolate" opacity=".46"/><ellipse cx="52.7" cy="78.48" rx="1" ry="1.03" fill="#f7ec13" isolation="isolate" opacity=".21"/><ellipse cx="27.1" cy="238.85" rx=".4" ry=".41" fill="#f7ec13" isolation="isolate" opacity=".44"/><ellipse cx="280.9" cy="324.49" rx=".4" ry=".41" fill="#f7ec13" isolation="isolate" opacity=".22"/><ellipse cx="296.8" cy="271.65" rx=".4" ry=".41" fill="#f7ec13" isolation="isolate" opacity=".23"/><ellipse cx="272.4" cy="220.35" rx=".8" ry=".82" fill="#f7ec13" isolation="isolate" opacity=".52"/><ellipse cx="112.1" cy="397.78" rx="1" ry="1.03" fill="#f7ec13" isolation="isolate" opacity=".21"/><ellipse cx="416.8" cy="111.48" rx=".8" ry=".82" fill="#f7ec13" isolation="isolate" opacity=".54"/><ellipse cx="250.3" cy="303.21" rx="1.2" ry="1.23" fill="#f7ec13" isolation="isolate" opacity=".44"/><ellipse cx="158.7" cy="120.53" rx=".7" ry=".72" fill="#f7ec13" isolation="isolate" opacity=".14"/><ellipse cx="45.3" cy="340.63" rx=".4" ry=".41" fill="#f7ec13" isolation="isolate" opacity=".28"/><ellipse cx="252.9" cy="227.75" rx=".8" ry=".82" fill="#f7ec13" isolation="isolate" opacity=".11"/><ellipse cx="246.7" cy="351.52" rx=".4" ry=".41" fill="#f7ec13" isolation="isolate" opacity=".44"/><ellipse cx="119.1" cy="268.56" rx=".6" ry=".62" fill="#f7ec13" isolation="isolate" opacity=".55"/><ellipse cx="329.3" cy="47.33" rx=".8" ry=".82" fill="#f7ec13" isolation="isolate" opacity=".49"/><ellipse cx="208.6" cy="270.62" rx=".5" ry=".51" fill="#f7ec13" isolation="isolate" opacity=".45"/><ellipse cx="302.3" cy="249.54" rx="1" ry="1.03" fill="#f7ec13" isolation="isolate" opacity=".53"/><ellipse cx="232.5" cy="157.95" rx="1.1" ry="1.13" fill="#f7ec13" isolation="isolate" opacity=".54"/><ellipse cx="5.5" cy="159.8" rx=".8" ry=".82" fill="#f7ec13" isolation="isolate" opacity=".31"/><ellipse cx="191.5" cy="190.95" rx="1.2" ry="1.23" fill="#f7ec13" isolation="isolate" opacity=".32"/><ellipse cx="331.7" cy="315.03" rx=".7" ry=".72" fill="#f7ec13" isolation="isolate" opacity=".52"/><ellipse cx="303.1" cy="383.08" rx=".4" ry=".41" fill="#f7ec13" isolation="isolate" opacity=".18"/><ellipse cx="166.1" cy="19.47" rx=".8" ry=".82" fill="#f7ec13" isolation="isolate" opacity=".46"/><ellipse cx="119.8" cy="7.14" rx=".5" ry=".51" fill="#f7ec13" isolation="isolate" opacity=".37"/><ellipse cx="16.3" cy="302.9" rx=".8" ry=".82" fill="#f7ec13" isolation="isolate" opacity=".37"/><ellipse cx="140.7" cy="347.31" rx="1.7" ry="1.75" fill="#f7ec13" isolation="isolate" opacity=".97"/><ellipse cx="345.2" cy="350.91" rx="1.8" ry="1.85" fill="#f7ec13"/><ellipse cx="152.1" cy="197.94" rx="1.6" ry="1.64" fill="#f7ec13" isolation="isolate" opacity=".9"/><ellipse cx="40.8" cy="261.37" rx="1.2" ry="1.23" fill="#f7ec13" isolation="isolate" opacity=".96"/><ellipse cx="223" cy="327.98" rx="1.1" ry="1.13" fill="#f7ec13"/><ellipse cx="375.2" cy="129.06" rx="1.9" ry="1.95" fill="#f7ec13" isolation="isolate" opacity=".96"/><ellipse cx="253.1" cy="272.67" rx="1.7" ry="1.75" fill="#f7ec13" isolation="isolate" opacity=".9"/><ellipse cx="303.6" cy="106.96" rx="1.4" ry="1.44" fill="#f7ec13" isolation="isolate" opacity=".87"/><ellipse cx="177.6" cy="47.54" rx="1.6" ry="1.64" fill="#f7ec13" isolation="isolate" opacity=".99"/><ellipse cx="363.2" cy="233.61" rx="1.9" ry="1.95" fill="#f7ec13" isolation="isolate" opacity=".92"/></g></g></svg>