<?xml version="1.0" encoding="UTF-8"?><svg id="a" xmlns="http://www.w3.org/2000/svg" width="420" height="420" viewBox="0 0 420 420"><g id="b"><g id="c"><ellipse cx="139.32" cy="13.48" rx="2.03" ry="2.08" fill="#369996" isolation="isolate" opacity=".7"/><ellipse cx="207.46" cy="339.91" rx="1.02" ry="1.04" fill="#369996" isolation="isolate" opacity=".7"/><ellipse cx="296.95" cy="419.96" rx="1.02" ry="1.04" fill="#369996" isolation="isolate" opacity=".7"/><ellipse cx="297.97" cy="331.59" rx="1.02" ry="1.04" fill="#369996" isolation="isolate" opacity=".7"/><ellipse cx="22.37" cy="16.59" rx="2.03" ry="2.08" fill="#369996" isolation="isolate" opacity=".7"/><ellipse cx="28.47" cy="171.5" rx="2.03" ry="2.08" fill="#369996" isolation="isolate" opacity=".7"/><ellipse cx="330.51" cy="60.26" rx="2.03" ry="2.08" fill="#369996" isolation="isolate" opacity=".7"/><ellipse cx="56.95" cy="392.93" rx="2.03" ry="2.08" fill="#369996" isolation="isolate" opacity=".7"/><ellipse cx="351.86" cy="57.14" rx="2.03" ry="2.08" fill="#369996" isolation="isolate" opacity=".7"/><ellipse cx="353.9" cy="262.98" rx="1.02" ry="1.04" fill="#369996" isolation="isolate" opacity=".7"/><ellipse cx="6.1" cy="42.58" rx="2.03" ry="2.08" fill="#369996" isolation="isolate" opacity=".7"/><ellipse cx="37.63" cy="41.54" rx="2.03" ry="2.08" fill="#369996" isolation="isolate" opacity=".7"/><ellipse cx="371.19" cy="74.81" rx="1.02" ry="1.04" fill="#369996" isolation="isolate" opacity=".7"/><ellipse cx="196.27" cy="59.22" rx="2.03" ry="2.08" fill="#369996" isolation="isolate" opacity=".7"/><ellipse cx="334.58" cy="140.31" rx="1.02" ry="1.04" fill="#369996" isolation="isolate" opacity=".7"/><ellipse cx="56.95" cy="73.77" rx="1.02" ry="1.04" fill="#369996" isolation="isolate" opacity=".7"/><ellipse cx="76.27" cy="245.31" rx="2.03" ry="2.08" fill="#369996" isolation="isolate" opacity=".7"/><ellipse cx="278.64" cy="51.94" rx="2.03" ry="2.08" fill="#369996" isolation="isolate" opacity=".7"/><ellipse cx="18.31" cy="150.7" rx="1.02" ry="1.04" fill="#369996" isolation="isolate" opacity=".7"/><ellipse cx="385.42" cy="62.34" rx="1.02" ry="1.04" fill="#369996" isolation="isolate" opacity=".7"/><ellipse cx="289.83" cy="3.08" rx="2.03" ry="2.08" fill="#369996" isolation="isolate" opacity=".7"/><ellipse cx="323.39" cy="269.22" rx="1.02" ry="1.04" fill="#369996" isolation="isolate" opacity=".7"/><ellipse cx="101.69" cy="196.45" rx="2.03" ry="2.08" fill="#369996" isolation="isolate" opacity=".7"/><ellipse cx="2.03" cy="236.99" rx="2.03" ry="2.08" fill="#369996" isolation="isolate" opacity=".7"/><ellipse cx="79.32" cy="126.79" rx="2.03" ry="2.08" fill="#369996" isolation="isolate" opacity=".7"/><ellipse cx="309.15" cy="233.87" rx="1.02" ry="1.04" fill="#369996" isolation="isolate" opacity=".7"/><ellipse cx="133.22" cy="267.14" rx="1.02" ry="1.04" fill="#369996" isolation="isolate" opacity=".7"/><ellipse cx="93.56" cy="198.52" rx="1.02" ry="1.04" fill="#369996" isolation="isolate" opacity=".7"/><ellipse cx="180" cy="62.34" rx="2.03" ry="2.08" fill="#369996" isolation="isolate" opacity=".7"/><ellipse cx="137.29" cy="142.39" rx="1.02" ry="1.04" fill="#369996" isolation="isolate" opacity=".7"/><ellipse cx="255.25" cy="300.41" rx="1.02" ry="1.04" fill="#369996" isolation="isolate" opacity=".7"/><ellipse cx="122.03" cy="191.25" rx="2.03" ry="2.08" fill="#369996" isolation="isolate" opacity=".7"/><ellipse cx="96.61" cy="146.54" rx="1.02" ry="1.04" fill="#369996" isolation="isolate" opacity=".7"/><ellipse cx="409.83" cy="351.35" rx="1.02" ry="1.04" fill="#369996" isolation="isolate" opacity=".7"/><ellipse cx="418.98" cy="338.87" rx="1.02" ry="1.04" fill="#369996" isolation="isolate" opacity=".7"/><ellipse cx="257.29" cy="57.14" rx="2.03" ry="2.08" fill="#369996" isolation="isolate" opacity=".7"/><ellipse cx="29.49" cy="349.27" rx="2.03" ry="2.08" fill="#369996" isolation="isolate" opacity=".7"/><ellipse cx="79.32" cy="157.98" rx="2.03" ry="2.08" fill="#369996" isolation="isolate" opacity=".7"/><ellipse cx="348.81" cy="257.78" rx="1.02" ry="1.04" fill="#369996" isolation="isolate" opacity=".7"/><ellipse cx="180" cy="375.26" rx="1.02" ry="1.04" fill="#369996" isolation="isolate" opacity=".7"/><ellipse cx="348.81" cy="336.79" rx="2.03" ry="2.08" fill="#369996" isolation="isolate" opacity=".7"/><ellipse cx="223.73" cy="274.42" rx="1.02" ry="1.04" fill="#369996" isolation="isolate" opacity=".7"/><ellipse cx="135.25" cy="177.73" rx="2.03" ry="2.08" fill="#369996" isolation="isolate" opacity=".7"/><ellipse cx="64.07" cy="346.15" rx="2.03" ry="2.08" fill="#369996" isolation="isolate" opacity=".7"/><ellipse cx="13.22" cy="299.37" rx="1.02" ry="1.04" fill="#369996" isolation="isolate" opacity=".7"/><ellipse cx="71.19" cy="302.49" rx="2.03" ry="2.08" fill="#369996" isolation="isolate" opacity=".7"/><ellipse cx="282.71" cy="361.74" rx="2.03" ry="2.08" fill="#369996" isolation="isolate" opacity=".7"/><ellipse cx="342.71" cy="148.62" rx="1.02" ry="1.04" fill="#369996" isolation="isolate" opacity=".7"/><ellipse cx="276.61" cy="302.49" rx="2.03" ry="2.08" fill="#369996" isolation="isolate" opacity=".7"/></g></g></svg>