<?xml version="1.0" encoding="UTF-8"?><svg id="a" xmlns="http://www.w3.org/2000/svg" width="420" height="420" viewBox="0 0 420 420"><g id="b"><g id="c"><circle cx="12.4" cy="113.3" r=".9" fill="#233f8b" isolation="isolate" opacity=".47"/><circle cx="157.9" cy="416.5" r=".4" fill="#233f8b" isolation="isolate" opacity=".15"/><circle cx="144.3" cy="84.7" r=".7" fill="#233f8b" isolation="isolate" opacity=".47"/><circle cx="383.5" cy="393.7" r=".5" fill="#233f8b" isolation="isolate" opacity=".29"/><circle cx="112" cy="201.2" r=".9" fill="#233f8b" isolation="isolate" opacity=".48"/><circle cx="3.8" cy="151.4" r=".6" fill="#233f8b" isolation="isolate" opacity=".15"/><circle cx="361" cy="139.8" r=".9" fill="#233f8b" isolation="isolate" opacity=".33"/><circle cx="63.6" cy="295.7" r=".4" fill="#233f8b" isolation="isolate" opacity=".46"/><circle cx="241" cy="352.7" r=".5" fill="#233f8b" isolation="isolate" opacity=".36"/><circle cx="232.2" cy="152.2" r=".9" fill="#233f8b" isolation="isolate" opacity=".42"/><circle cx="170.9" cy="7.6" r=".9" fill="#233f8b" isolation="isolate" opacity=".18"/><circle cx="227.2" cy="296.4" r=".5" fill="#233f8b" isolation="isolate" opacity=".49"/><circle cx="157.9" cy="302.6" r=".4" fill="#233f8b" isolation="isolate" opacity=".41"/><circle cx="70.8" cy="156" r=".4" fill="#233f8b" isolation="isolate" opacity=".25"/><circle cx="146" cy="198.7" r=".4" fill="#233f8b" isolation="isolate" opacity=".46"/><circle cx="420" cy="31.7" r=".5" fill="#233f8b" isolation="isolate" opacity=".33"/><circle cx="228.4" cy="161.7" r=".8" fill="#233f8b" isolation="isolate" opacity=".25"/><circle cx="236.6" cy="245.6" r=".4" fill="#233f8b" isolation="isolate" opacity=".47"/><circle cx="162.9" cy="27.5" r=".9" fill="#233f8b" isolation="isolate" opacity=".26"/><circle cx="26.9" cy="227.9" r="1.2" fill="#233f8b" isolation="isolate" opacity=".41"/><path d="M255.7,209.8c.28,0,.5.22.5.5s-.22.5-.5.5-.5-.22-.5-.5.22-.5.5-.5Z" fill="#233f8b" isolation="isolate" opacity=".16"/><circle cx="127.1" cy="341.8" r=".6" fill="#233f8b" isolation="isolate" opacity=".53"/><circle cx="85.9" cy="191.5" r=".4" fill="#233f8b" isolation="isolate" opacity=".52"/><circle cx="74.8" cy="95.3" r=".5" fill="#233f8b" isolation="isolate" opacity=".3"/><circle cx="104.1" cy="10.6" r=".6" fill="#233f8b" isolation="isolate" opacity=".42"/><circle cx="120.9" cy="96.8" r=".4" fill="#233f8b" isolation="isolate" opacity=".46"/><circle cx="27.2" cy="377.8" r="1.2" fill="#233f8b" isolation="isolate" opacity=".15"/><circle cx="286.1" cy="209.3" r=".4" fill="#233f8b" isolation="isolate" opacity=".41"/><circle cx="120.6" cy="390.5" r=".8" fill="#233f8b" isolation="isolate" opacity=".51"/><circle cx="292.7" cy="65" r="1.2" fill="#233f8b" isolation="isolate" opacity=".43"/><circle cx="114" cy="331.5" r=".8" fill="#233f8b" isolation="isolate" opacity=".25"/><circle cx="319.7" cy="387.8" r="1.1" fill="#233f8b" isolation="isolate" opacity=".54"/><circle cx="387.2" cy="249" r=".4" fill="#233f8b" isolation="isolate" opacity=".47"/><circle cx="332.2" cy="144.4" r="1.2" fill="#233f8b" isolation="isolate" opacity=".41"/><circle cx="342.3" cy="91" r=".4" fill="#233f8b" isolation="isolate" opacity=".35"/><circle cx="123.8" cy="278.5" r="1.1" fill="#233f8b" isolation="isolate" opacity=".44"/><circle cx="203.1" cy="67" r="1" fill="#233f8b" isolation="isolate" opacity=".53"/><circle cx="400.8" cy="368.2" r=".4" fill="#233f8b" isolation="isolate" opacity=".19"/><circle cx="390.4" cy="25" r=".5" fill="#233f8b" isolation="isolate" opacity=".31"/><circle cx="349" cy="16.6" r="1" fill="#233f8b" isolation="isolate" opacity=".24"/><circle cx="76.4" cy="156.2" r="1" fill="#233f8b" isolation="isolate" opacity=".45"/><circle cx="167.6" cy="386.7" r=".7" fill="#233f8b" isolation="isolate" opacity=".34"/><circle cx="257.3" cy="250.9" r=".4" fill="#233f8b" isolation="isolate" opacity=".36"/><circle cx="315.7" cy="223.4" r=".4" fill="#233f8b" isolation="isolate" opacity=".43"/><circle cx="152" cy="203.2" r=".6" fill="#233f8b" isolation="isolate" opacity=".21"/><circle cx="147" cy="61.1" r="1.2" fill="#233f8b" isolation="isolate" opacity=".46"/><circle cx="22.1" cy="6.5" r=".4" fill="#233f8b" isolation="isolate" opacity=".34"/><circle cx="117.1" cy="189.4" r=".8" fill="#233f8b" isolation="isolate" opacity=".54"/><circle cx="348.1" cy="319.4" r=".6" fill="#233f8b" isolation="isolate" opacity=".46"/><circle cx="355.3" cy="319" r=".6" fill="#233f8b" isolation="isolate" opacity=".37"/><circle cx="282.4" cy="280.5" r="1.2" fill="#233f8b" isolation="isolate" opacity=".37"/><circle cx="322.3" cy="356" r=".7" fill="#233f8b" isolation="isolate" opacity=".3"/><circle cx="125.4" cy="185.3" r=".8" fill="#233f8b" isolation="isolate" opacity=".45"/><circle cx="164.5" cy="328.5" r=".5" fill="#233f8b" isolation="isolate" opacity=".52"/><circle cx="236.3" cy="39.9" r=".7" fill="#233f8b" isolation="isolate" opacity=".36"/><circle cx="295.8" cy="37" r="1.2" fill="#233f8b" isolation="isolate" opacity=".51"/><circle cx="28.4" cy="128.4" r=".7" fill="#233f8b" isolation="isolate" opacity=".28"/><circle cx="109.9" cy="347.9" r=".8" fill="#233f8b" isolation="isolate" opacity=".44"/><circle cx="106.9" cy="149.7" r=".6" fill="#233f8b" isolation="isolate" opacity=".5"/><circle cx="77.3" cy="192.7" r=".7" fill="#233f8b" isolation="isolate" opacity=".22"/><circle cx="282" cy="366.8" r="1.1" fill="#233f8b" isolation="isolate" opacity=".5"/><circle cx="35.1" cy="396.7" r=".4" fill="#233f8b" isolation="isolate" opacity=".45"/><circle cx="276.4" cy="400" r=".7" fill="#233f8b" isolation="isolate" opacity=".28"/><circle cx="412.5" cy="265.1" r=".8" fill="#233f8b" isolation="isolate" opacity=".36"/><circle cx="141" cy="344.6" r=".8" fill="#233f8b" isolation="isolate" opacity=".38"/><circle cx="328.6" cy="145.9" r=".6" fill="#233f8b" isolation="isolate" opacity=".12"/><circle cx="261.6" cy="372.3" r=".4" fill="#233f8b" isolation="isolate" opacity=".42"/><circle cx="261" cy="120.2" r=".4" fill="#233f8b" isolation="isolate" opacity=".41"/><circle cx="98.6" cy="150.9" r=".4" fill="#233f8b" isolation="isolate" opacity=".51"/><circle cx="355.6" cy="46.4" r=".9" fill="#233f8b" isolation="isolate" opacity=".39"/><circle cx="372.4" cy="119.6" r=".4" fill="#233f8b" isolation="isolate" opacity=".34"/><circle cx="25.2" cy="245.1" r=".7" fill="#233f8b" isolation="isolate" opacity=".29"/><circle cx="263.8" cy="199.5" r=".4" fill="#233f8b" isolation="isolate" opacity=".16"/><circle cx="219.9" cy="43.3" r=".6" fill="#233f8b" isolation="isolate" opacity=".25"/><circle cx="320.5" cy="123.5" r=".6" fill="#233f8b" isolation="isolate" opacity=".47"/><circle cx="27.6" cy="78.3" r="1.1" fill="#233f8b" isolation="isolate" opacity=".17"/><circle cx="193.7" cy="307.5" r="1.2" fill="#233f8b" isolation="isolate" opacity=".51"/><circle cx="227.9" cy="247.7" r=".4" fill="#233f8b" isolation="isolate" opacity=".33"/><circle cx="161.1" cy="177" r=".4" fill="#233f8b" isolation="isolate" opacity=".45"/><circle cx="182.9" cy="354.5" r=".6" fill="#233f8b" isolation="isolate" opacity=".41"/><circle cx="179.5" cy="126.9" r=".4" fill="#233f8b" isolation="isolate" opacity=".43"/><circle cx="354.4" cy="7.2" r=".5" fill="#233f8b" isolation="isolate" opacity=".53"/><circle cx="329.6" cy="280.6" r=".8" fill="#233f8b" isolation="isolate" opacity=".45"/><circle cx="7.9" cy="339.7" r=".6" fill="#233f8b" isolation="isolate" opacity=".42"/><circle cx="134.4" cy="48" r="1" fill="#233f8b" isolation="isolate" opacity=".54"/><circle cx="293.4" cy="327.9" r=".6" fill="#233f8b" isolation="isolate" opacity=".32"/><circle cx="268.6" cy="163.2" r=".5" fill="#233f8b" isolation="isolate" opacity=".46"/><circle cx="320.4" cy="293.6" r="1.1" fill="#233f8b" isolation="isolate" opacity=".48"/><circle cx="382.7" cy="36.8" r=".8" fill="#233f8b" isolation="isolate" opacity=".49"/><circle cx="301" cy="406.3" r=".5" fill="#233f8b" isolation="isolate" opacity=".47"/><circle cx="257.5" cy="237.2" r="1" fill="#233f8b" isolation="isolate" opacity=".51"/><circle cx="5.4" cy="99.9" r=".9" fill="#233f8b" isolation="isolate" opacity=".39"/><circle cx="268.9" cy="390.5" r=".9" fill="#233f8b" isolation="isolate" opacity=".51"/><circle cx="342" cy="347.2" r=".4" fill="#233f8b" isolation="isolate" opacity=".4"/><circle cx="158.4" cy="334.6" r=".7" fill="#233f8b" isolation="isolate" opacity=".25"/><circle cx="135.5" cy="183" r=".9" fill="#233f8b" isolation="isolate" opacity=".18"/><circle cx="55.2" cy="59.1" r=".5" fill="#233f8b" isolation="isolate" opacity=".32"/><circle cx="292.5" cy="14.6" r=".7" fill="#233f8b" isolation="isolate" opacity=".42"/><circle cx="81.7" cy="294.2" r=".8" fill="#233f8b" isolation="isolate" opacity=".51"/><circle cx="360.6" cy="14.7" r=".6" fill="#233f8b" isolation="isolate" opacity=".27"/><circle cx="237.7" cy="103.3" r=".4" fill="#233f8b" isolation="isolate" opacity=".4"/><circle cx="134" cy="418.3" r=".9" fill="#233f8b" isolation="isolate" opacity=".31"/><circle cx="157.3" cy="225.3" r=".4" fill="#233f8b" isolation="isolate" opacity=".47"/><circle cx="180.6" cy="255" r=".4" fill="#233f8b" isolation="isolate" opacity=".54"/><circle cx="75.5" cy="108.8" r=".4" fill="#233f8b" isolation="isolate" opacity=".47"/><circle cx=".8" cy="190.3" r=".9" fill="#233f8b" isolation="isolate" opacity=".36"/><circle cx="224" cy="45.2" r="1.2" fill="#233f8b" isolation="isolate" opacity=".37"/><circle cx="294.3" cy="75.6" r=".4" fill="#233f8b" isolation="isolate" opacity=".52"/><circle cx="14.9" cy="179.2" r=".7" fill="#233f8b" isolation="isolate" opacity=".37"/><circle cx="126.4" cy="298.6" r=".7" fill="#233f8b" isolation="isolate" opacity=".47"/><circle cx="63.7" cy="141.8" r=".4" fill="#233f8b" isolation="isolate" opacity=".51"/><circle cx="208.9" cy="322.6" r="1" fill="#233f8b" isolation="isolate" opacity=".37"/><circle cx="140.8" cy="371.4" r=".4" fill="#233f8b" isolation="isolate" opacity=".43"/><circle cx="232.2" cy="142.8" r="1.1" fill="#233f8b" isolation="isolate" opacity=".17"/><circle cx="242.7" cy="269.5" r=".5" fill="#233f8b" isolation="isolate" opacity=".47"/><circle cx="349.9" cy="225" r="1" fill="#233f8b" isolation="isolate" opacity=".51"/><circle cx="366.8" cy="164.1" r="1" fill="#233f8b" isolation="isolate" opacity=".54"/><circle cx="104.8" cy="43.6" r=".4" fill="#233f8b" isolation="isolate" opacity=".55"/><circle cx="348.2" cy="393.9" r=".4" fill="#233f8b" isolation="isolate" opacity=".12"/><circle cx="363.2" cy="237.6" r=".7" fill="#233f8b" isolation="isolate" opacity=".34"/><circle cx="86.7" cy="248.7" r=".9" fill="#233f8b" isolation="isolate" opacity=".3"/><circle cx="61.9" cy="243.2" r=".5" fill="#233f8b" isolation="isolate" opacity=".35"/><circle cx="98.8" cy="232.8" r=".4" fill="#233f8b" isolation="isolate" opacity=".52"/><circle cx="410.6" cy="299.4" r=".4" fill="#233f8b" isolation="isolate" opacity=".15"/><circle cx="65.2" cy="108" r="1.1" fill="#233f8b" isolation="isolate" opacity=".46"/><circle cx="390.1" cy="132.2" r=".4" fill="#233f8b" isolation="isolate" opacity=".21"/><circle cx="80" cy="373.9" r=".6" fill="#233f8b" isolation="isolate" opacity=".33"/><circle cx="380.3" cy="251.9" r=".7" fill="#233f8b" isolation="isolate" opacity=".26"/><circle cx="177.7" cy="378" r=".4" fill="#233f8b" isolation="isolate" opacity=".41"/><circle cx="168.4" cy="46" r="1.1" fill="#233f8b" isolation="isolate" opacity=".48"/><circle cx="216.2" cy="259.4" r=".8" fill="#233f8b" isolation="isolate" opacity=".42"/><circle cx="281.6" cy="153.9" r="1.1" fill="#233f8b" isolation="isolate" opacity=".54"/><circle cx="296.1" cy="19.3" r="1.2" fill="#233f8b" isolation="isolate" opacity=".18"/><circle cx="359.5" cy="251.4" r=".4" fill="#233f8b" isolation="isolate" opacity=".2"/><circle cx="139.6" cy="234.8" r=".7" fill="#233f8b" isolation="isolate" opacity=".16"/><circle cx="227.1" cy="369.4" r=".9" fill="#233f8b" isolation="isolate" opacity=".25"/><circle cx="83.4" cy="299.1" r="1" fill="#233f8b" isolation="isolate" opacity=".4"/><circle cx="152.4" cy=".2" r=".4" fill="#233f8b" isolation="isolate" opacity=".26"/><circle cx="7.1" cy="190.1" r=".6" fill="#233f8b" isolation="isolate" opacity=".18"/><circle cx="277.4" cy="207.8" r=".4" fill="#233f8b" isolation="isolate" opacity=".39"/><circle cx="326" cy="113.7" r=".4" fill="#233f8b" isolation="isolate" opacity=".3"/><circle cx="160.9" cy="88.4" r=".7" fill="#233f8b" isolation="isolate" opacity=".53"/><circle cx="241.4" cy="174.5" r=".7" fill="#233f8b" isolation="isolate" opacity=".32"/><circle cx="248.3" cy="35" r=".5" fill="#233f8b" isolation="isolate" opacity=".4"/><circle cx="331.7" cy="218.5" r=".4" fill="#233f8b" isolation="isolate" opacity=".14"/><circle cx="407.6" cy="390.8" r=".6" fill="#233f8b" isolation="isolate" opacity=".47"/><circle cx="186" cy="290.3" r=".4" fill="#233f8b" isolation="isolate" opacity=".24"/><circle cx="17.4" cy="201.5" r=".4" fill="#233f8b" isolation="isolate" opacity=".36"/><circle cx="160.1" cy="75.8" r=".4" fill="#233f8b" isolation="isolate" opacity=".14"/><circle cx="103.4" cy="403" r=".7" fill="#233f8b" isolation="isolate" opacity=".22"/><circle cx="398.5" cy="320.9" r="1" fill="#233f8b" isolation="isolate" opacity=".36"/><circle cx="169.2" cy="410.5" r="1.2" fill="#233f8b" isolation="isolate" opacity=".33"/><circle cx="131.1" cy="141.8" r=".4" fill="#233f8b" isolation="isolate" opacity=".36"/><circle cx="170.4" cy="371.5" r=".4" fill="#233f8b" isolation="isolate" opacity=".32"/><circle cx="401.3" cy="197.4" r=".7" fill="#233f8b" isolation="isolate" opacity=".49"/><circle cx="372.2" cy="123.9" r=".6" fill="#233f8b" isolation="isolate" opacity=".35"/><circle cx="2.9" cy="206.4" r=".5" fill="#233f8b" isolation="isolate" opacity=".46"/><circle cx="237.4" cy="153.9" r=".4" fill="#233f8b" isolation="isolate" opacity=".51"/><circle cx="142.4" cy="199.5" r="1.2" fill="#233f8b" isolation="isolate" opacity=".5"/><circle cx="415" cy="249.1" r="1" fill="#233f8b" isolation="isolate" opacity=".42"/><circle cx="36.8" cy="108.1" r=".7" fill="#233f8b" isolation="isolate" opacity=".45"/><circle cx="395.2" cy="107" r="1.1" fill="#233f8b" isolation="isolate" opacity=".51"/><circle cx="169" cy="204.3" r=".4" fill="#233f8b" isolation="isolate" opacity=".27"/><circle cx="37.5" cy="88.3" r="1.8" fill="#233f8b" isolation="isolate" opacity=".92"/><circle cx="348" cy="166.8" r="1.2" fill="#233f8b" isolation="isolate" opacity=".99"/><circle cx="261.4" cy="101.3" r="1.5" fill="#233f8b" isolation="isolate" opacity=".93"/><circle cx="347.9" cy="57" r="1.7" fill="#233f8b"/><circle cx="55.2" cy="303.3" r="1.7" fill="#233f8b" isolation="isolate" opacity=".99"/><circle cx="208" cy="50.8" r="1.9" fill="#233f8b" isolation="isolate" opacity=".98"/><circle cx="168.8" cy="359.7" r="1.8" fill="#233f8b" isolation="isolate" opacity=".92"/><circle cx="178.1" cy="298.7" r="1.4" fill="#233f8b" isolation="isolate" opacity=".98"/><circle cx="332.7" cy="316.1" r="1" fill="#233f8b"/><circle cx="233.4" cy="175.1" r="1.7" fill="#233f8b" isolation="isolate" opacity=".98"/></g></g></svg>