<?xml version="1.0" encoding="UTF-8"?><svg id="a" xmlns="http://www.w3.org/2000/svg" width="420" height="420" viewBox="0 0 420 420"><g id="b"><g id="c"><ellipse cx="139.32" cy="12.48" rx="2.03" ry="2.08" fill="#36936a" isolation="isolate" opacity=".7"/><ellipse cx="207.46" cy="338.91" rx="1.02" ry="1.04" fill="#36936a" isolation="isolate" opacity=".7"/><ellipse cx="296.95" cy="418.96" rx="1.02" ry="1.04" fill="#36936a" isolation="isolate" opacity=".7"/><ellipse cx="297.97" cy="330.59" rx="1.02" ry="1.04" fill="#36936a" isolation="isolate" opacity=".7"/><ellipse cx="22.37" cy="15.59" rx="2.03" ry="2.08" fill="#36936a" isolation="isolate" opacity=".7"/><ellipse cx="28.47" cy="170.5" rx="2.03" ry="2.08" fill="#36936a" isolation="isolate" opacity=".7"/><ellipse cx="330.51" cy="59.26" rx="2.03" ry="2.08" fill="#36936a" isolation="isolate" opacity=".7"/><ellipse cx="56.95" cy="391.93" rx="2.03" ry="2.08" fill="#36936a" isolation="isolate" opacity=".7"/><ellipse cx="351.86" cy="56.14" rx="2.03" ry="2.08" fill="#36936a" isolation="isolate" opacity=".7"/><ellipse cx="353.9" cy="261.98" rx="1.02" ry="1.04" fill="#36936a" isolation="isolate" opacity=".7"/><ellipse cx="6.1" cy="41.58" rx="2.03" ry="2.08" fill="#36936a" isolation="isolate" opacity=".7"/><ellipse cx="37.63" cy="40.54" rx="2.03" ry="2.08" fill="#36936a" isolation="isolate" opacity=".7"/><ellipse cx="371.19" cy="73.81" rx="1.02" ry="1.04" fill="#36936a" isolation="isolate" opacity=".7"/><ellipse cx="196.27" cy="58.22" rx="2.03" ry="2.08" fill="#36936a" isolation="isolate" opacity=".7"/><ellipse cx="334.58" cy="139.31" rx="1.02" ry="1.04" fill="#36936a" isolation="isolate" opacity=".7"/><ellipse cx="56.95" cy="72.77" rx="1.02" ry="1.04" fill="#36936a" isolation="isolate" opacity=".7"/><ellipse cx="76.27" cy="244.31" rx="2.03" ry="2.08" fill="#36936a" isolation="isolate" opacity=".7"/><ellipse cx="278.64" cy="50.94" rx="2.03" ry="2.08" fill="#36936a" isolation="isolate" opacity=".7"/><ellipse cx="18.31" cy="149.7" rx="1.02" ry="1.04" fill="#36936a" isolation="isolate" opacity=".7"/><ellipse cx="385.42" cy="61.34" rx="1.02" ry="1.04" fill="#36936a" isolation="isolate" opacity=".7"/><ellipse cx="289.83" cy="2.08" rx="2.03" ry="2.08" fill="#36936a" isolation="isolate" opacity=".7"/><ellipse cx="323.39" cy="268.22" rx="1.02" ry="1.04" fill="#36936a" isolation="isolate" opacity=".7"/><ellipse cx="101.69" cy="195.45" rx="2.03" ry="2.08" fill="#36936a" isolation="isolate" opacity=".7"/><ellipse cx="2.03" cy="235.99" rx="2.03" ry="2.08" fill="#36936a" isolation="isolate" opacity=".7"/><ellipse cx="79.32" cy="125.79" rx="2.03" ry="2.08" fill="#36936a" isolation="isolate" opacity=".7"/><ellipse cx="309.15" cy="232.87" rx="1.02" ry="1.04" fill="#36936a" isolation="isolate" opacity=".7"/><ellipse cx="133.22" cy="266.14" rx="1.02" ry="1.04" fill="#36936a" isolation="isolate" opacity=".7"/><ellipse cx="93.56" cy="197.52" rx="1.02" ry="1.04" fill="#36936a" isolation="isolate" opacity=".7"/><ellipse cx="180" cy="61.34" rx="2.03" ry="2.08" fill="#36936a" isolation="isolate" opacity=".7"/><ellipse cx="137.29" cy="141.39" rx="1.02" ry="1.04" fill="#36936a" isolation="isolate" opacity=".7"/><ellipse cx="255.25" cy="299.41" rx="1.02" ry="1.04" fill="#36936a" isolation="isolate" opacity=".7"/><ellipse cx="122.03" cy="190.25" rx="2.03" ry="2.08" fill="#36936a" isolation="isolate" opacity=".7"/><ellipse cx="96.61" cy="145.54" rx="1.02" ry="1.04" fill="#36936a" isolation="isolate" opacity=".7"/><ellipse cx="409.83" cy="350.35" rx="1.02" ry="1.04" fill="#36936a" isolation="isolate" opacity=".7"/><ellipse cx="418.98" cy="337.87" rx="1.02" ry="1.04" fill="#36936a" isolation="isolate" opacity=".7"/><ellipse cx="257.29" cy="56.14" rx="2.03" ry="2.08" fill="#36936a" isolation="isolate" opacity=".7"/><ellipse cx="29.49" cy="348.27" rx="2.03" ry="2.08" fill="#36936a" isolation="isolate" opacity=".7"/><ellipse cx="79.32" cy="156.98" rx="2.03" ry="2.08" fill="#36936a" isolation="isolate" opacity=".7"/><ellipse cx="348.81" cy="256.78" rx="1.02" ry="1.04" fill="#36936a" isolation="isolate" opacity=".7"/><ellipse cx="180" cy="374.26" rx="1.02" ry="1.04" fill="#36936a" isolation="isolate" opacity=".7"/><ellipse cx="348.81" cy="335.79" rx="2.03" ry="2.08" fill="#36936a" isolation="isolate" opacity=".7"/><ellipse cx="223.73" cy="273.42" rx="1.02" ry="1.04" fill="#36936a" isolation="isolate" opacity=".7"/><ellipse cx="135.25" cy="176.73" rx="2.03" ry="2.08" fill="#36936a" isolation="isolate" opacity=".7"/><ellipse cx="64.07" cy="345.15" rx="2.03" ry="2.08" fill="#36936a" isolation="isolate" opacity=".7"/><ellipse cx="13.22" cy="298.37" rx="1.02" ry="1.04" fill="#36936a" isolation="isolate" opacity=".7"/><ellipse cx="71.19" cy="301.49" rx="2.03" ry="2.08" fill="#36936a" isolation="isolate" opacity=".7"/><ellipse cx="282.71" cy="360.74" rx="2.03" ry="2.08" fill="#36936a" isolation="isolate" opacity=".7"/><ellipse cx="342.71" cy="147.62" rx="1.02" ry="1.04" fill="#36936a" isolation="isolate" opacity=".7"/><ellipse cx="276.61" cy="301.49" rx="2.03" ry="2.08" fill="#36936a" isolation="isolate" opacity=".7"/></g></g></svg>